<svg xmlns="http://www.w3.org/2000/svg" viewBox="0 0 128 128">
<g>
	<path fill="#fff" d="M27.413,64.066c6.416,2.583,9.626,7.609,9.626,15.072v18.828c0,4.916,1.137,7.896,3.414,8.936
		c2.277,1.039,6.288,1.557,12.032,1.557v9.734l-6.986,0.125c-7.917,0-13.688-1.396-17.31-4.195
		c-3.623-2.799-5.434-7.504-5.434-14.121V79.713c0-4.158-0.854-6.986-2.562-8.492c-1.708-1.506-3.831-2.492-6.365-2.959V59.04
		c5.95-1.018,8.927-4.556,8.927-10.622V27.112c0-6.193,1.824-10.644,5.472-13.358c3.648-2.715,9.56-4.071,17.737-4.071
		c1.397,0,3.571,0.041,6.521,0.127v9.731c-6.521,0-10.725,0.679-12.613,2.036c-1.89,1.358-2.833,4.093-2.833,8.205v19.337
		c0,2.629-0.479,5.309-1.437,8.045C34.644,59.9,31.915,62.199,27.413,64.066z"/>
	<path fill="#fff" d="M100.587,63.937c-6.417-2.544-9.625-7.569-9.625-15.073V30.036c0-4.918-1.126-7.896-3.377-8.936
		c-2.251-1.039-6.275-1.559-12.071-1.559V9.81l6.909-0.127c8.177,0,14.012,1.464,17.505,4.388c3.493,2.926,5.239,7.568,5.239,13.929
		v20.291c0,4.114,0.841,6.935,2.523,8.461c1.682,1.524,3.842,2.523,6.481,2.989v9.22c-6.003,1.018-9.005,4.559-9.005,10.621v21.309
		c0,6.193-1.824,10.645-5.473,13.357c-3.648,2.717-9.535,4.07-17.66,4.07c-1.448,0-3.622-0.043-6.521-0.125v-9.734
		c6.521,0,10.726-0.676,12.614-2.035c1.89-1.354,2.834-4.092,2.834-8.201V78.885c0-2.883,0.518-5.641,1.552-8.268
		C93.549,67.986,96.24,65.762,100.587,63.937z"/>
</g>
</svg>
