<svg xmlns="http://www.w3.org/2000/svg" viewBox="0 0 128 128">
<g>
	<g>
		<path fill="#fff" d="M28.8,81.855c-0.991,1.002-2.683,1.08-3.762,0.171L1.646,62.313c-1.078-0.909-1.078-2.395,0.001-3.303
			l23.391-19.677c1.079-0.908,2.772-0.829,3.763,0.173l2.72,2.754c0.991,1.002,0.909,2.556-0.181,3.449L15.204,58.952
			c-1.09,0.893-1.095,2.363-0.01,3.264l16.156,13.419c1.084,0.901,1.161,2.461,0.17,3.462L28.8,81.855z"/>
	</g>
	<g>
		<path fill="#fff" d="M54.716,89.104c-0.556,1.297-2.165,2.355-3.575,2.355h-4.477c-1.41,0-2.11-1.059-1.553-2.355
			l26.266-61.262c0.556-1.296,2.162-2.355,3.572-2.355h4.521c1.409,0,2.108,1.06,1.552,2.355L54.716,89.104z"/>
	</g>
	<g>
		<path fill="#fff" d="M99.203,39.514c0.986-1.006,2.677-1.088,3.756-0.18l23.393,19.677c1.081,0.908,1.081,2.395,0,3.303
			l-23.393,19.712c-1.079,0.909-2.77,0.829-3.757-0.178l-2.691-2.743c-0.987-1.007-0.903-2.563,0.184-3.46l16.104-13.271
			c1.089-0.897,1.092-2.369,0.005-3.268L96.688,45.725c-1.083-0.901-1.162-2.461-0.178-3.468L99.203,39.514z"/>
	</g>
</g>
</svg>
