<?xml version="1.0" encoding="utf-8"?>
<svg version="1.1" id="Layer_1" xmlns="http://www.w3.org/2000/svg" xmlns:xlink="http://www.w3.org/1999/xlink" x="0px" y="0px"
	 width="18.641px" height="21.471px" viewBox="0 0 18.641 21.471" enable-background="new 0 0 18.641 21.471" xml:space="preserve">
	<path fill="#ffffff" d="M9.31,20.189c-0.173,0-0.345-0.045-0.5-0.134l-7.31-4.22C1.19,15.656,1,15.326,1,14.969V6.53C1,6.173,1.19,5.842,1.5,5.664
		l7.31-4.222c0.155-0.089,0.327-0.134,0.5-0.134s0.345,0.044,0.5,0.134l7.31,4.222c0.31,0.179,0.5,0.509,0.5,0.865v8.439
		c0,0.357-0.19,0.688-0.5,0.866l-7.31,4.22C9.656,20.144,9.483,20.189,9.31,20.189z M9.318,14.657l4.735-2.734V8.962l-4.235,2.446
		c-0.154,0.089-0.326,0.134-0.5,0.134c-0.173,0-0.345-0.045-0.5-0.134L4.582,8.962v2.961L9.318,14.657z">
        <animate attributeName="d" id="goDown" dur="250ms" begin="0s; 0.5s; goUp.end+5s" fill="freeze" values="M9.31,20.189c-0.173,0-0.345-0.045-0.5-0.134L1.5,15.835C1.19,15.656,1,15.326,1,14.969V6.53
		c0-0.357,0.19-0.688,0.5-0.866L8.81,1.443c0.155-0.089,0.327-0.134,0.5-0.134s0.345,0.044,0.5,0.134l7.309,4.221
		c0.31,0.179,0.5,0.509,0.5,0.866v8.439c0,0.357-0.19,0.688-0.5,0.866l-7.309,4.22C9.656,20.144,9.483,20.189,9.31,20.189z
		 M9.318,14.657l4.735-2.734V8.962l-4.235,2.446c-0.155,0.089-0.327,0.134-0.5,0.134s-0.345-0.045-0.5-0.134L4.582,8.962v2.961
		L9.318,14.657z; M9.31,20.189c-0.173,0-0.345-0.045-0.5-0.134L1.5,15.835C1.19,15.656,1,15.326,1,14.969V6.53
		c0-0.357,0.19-0.688,0.5-0.866L8.81,1.443c0.155-0.089,0.327-0.134,0.5-0.134s0.345,0.044,0.5,0.134l7.309,4.221
		c0.31,0.179,0.5,0.509,0.5,0.866v8.439c0,0.357-0.19,0.688-0.5,0.866l-7.309,4.22C9.656,20.144,9.483,20.189,9.31,20.189z
		 M9.318,16.657l4.735-2.734v-2.961l-4.235,2.446c-0.155,0.089-0.327,0.134-0.5,0.134s-0.345-0.045-0.5-0.134l-4.235-2.446v2.961
		L9.318,16.657z" keyTimes="0; 1" calcMode="spline" keySplines=".53 .25 .82 .54" />
        <animate attributeName="d" id="goUp" dur="250ms" begin="goDown.end" fill="freeze" values="M9.31,20.189c-0.173,0-0.345-0.045-0.5-0.134L1.5,15.835C1.19,15.656,1,15.326,1,14.969V6.53
		c0-0.357,0.19-0.688,0.5-0.866L8.81,1.443c0.155-0.089,0.327-0.134,0.5-0.134s0.345,0.044,0.5,0.134l7.309,4.221
		c0.31,0.179,0.5,0.509,0.5,0.866v8.439c0,0.357-0.19,0.688-0.5,0.866l-7.309,4.22C9.656,20.144,9.483,20.189,9.31,20.189z
		 M9.318,16.657l4.735-2.734v-2.961l-4.235,2.446c-0.155,0.089-0.327,0.134-0.5,0.134s-0.345-0.045-0.5-0.134l-4.235-2.446v2.961
		L9.318,16.657z; M9.31,20.189c-0.173,0-0.345-0.045-0.5-0.134L1.5,15.835C1.19,15.656,1,15.326,1,14.969V6.53
		c0-0.357,0.19-0.688,0.5-0.866L8.81,1.443c0.155-0.089,0.327-0.134,0.5-0.134s0.345,0.044,0.5,0.134l7.309,4.221
		c0.31,0.179,0.5,0.509,0.5,0.866v8.439c0,0.357-0.19,0.688-0.5,0.866l-7.309,4.22C9.656,20.144,9.483,20.189,9.31,20.189z
		 M9.318,14.657l4.735-2.734V8.962l-4.235,2.446c-0.155,0.089-0.327,0.134-0.5,0.134s-0.345-0.045-0.5-0.134L4.582,8.962v2.961
		L9.318,14.657z" keyTimes="0; 1" calcMode="spline" keySplines=".18 .5 .46 .78" />
    </path>
</svg>
