<?xml version="1.0" encoding="utf-8"?>
<!-- Generator: Adobe Illustrator 16.0.0, SVG Export Plug-In . SVG Version: 6.00 Build 0)  -->
<!DOCTYPE svg PUBLIC "-//W3C//DTD SVG 1.1//EN" "http://www.w3.org/Graphics/SVG/1.1/DTD/svg11.dtd">
<svg version="1.1" id="Layer_1" xmlns="http://www.w3.org/2000/svg" xmlns:xlink="http://www.w3.org/1999/xlink" x="0px" y="0px"
	 width="18.64px" height="21.471px" viewBox="0 0 18.64 21.471" enable-background="new 0 0 18.64 21.471" xml:space="preserve">
<g id="XMLID_1_">
	<g>
		<g>
			<g>
				<path fill="#FFFFFF" d="M13.453,12.188c0.478-0.273,0.869-0.948,0.871-1.498l0.002-0.49c0.002-0.55-0.386-0.775-0.862-0.5
					l-3.277,1.89c-0.477,0.275-1.255,0.274-1.731-0.002l-3.27-1.896C4.709,9.416,4.318,9.641,4.316,10.19L4.314,10.67
					c-0.002,0.55,0.385,1.226,0.861,1.502l3.27,1.896c0.476,0.276,1.255,0.277,1.732,0.004L13.453,12.188z M17.733,4.843
					c0.477,0.273,0.869,0.947,0.871,1.497l0.032,8.73c0.002,0.55-0.385,1.227-0.86,1.503l-7.552,4.395
					c-0.475,0.276-1.255,0.279-1.732,0.007l-7.583-4.338c-0.478-0.272-0.87-0.946-0.872-1.496L0.004,6.4
					c-0.002-0.55,0.385-1.227,0.86-1.503l7.551-4.395c0.475-0.276,1.255-0.279,1.732-0.006L17.733,4.843z"/>
			</g>
		</g>
	</g>
</g>
</svg>
