<svg xmlns="http://www.w3.org/2000/svg" viewBox="0 0 128 128">
<g>
	<g>
		<path fill="#FFFFFF" d="M65.456,92.736c-0.802,0.842-2.112,0.842-2.912,0L32.876,61.544c-0.801-0.842-0.506-1.53,0.657-1.53H49.94
			c1.162,0,2.113-0.95,2.113-2.112V16.476c0-1.162,0.95-2.112,2.112-2.112h19.669c1.162,0,2.112,0.95,2.112,2.112v41.426
			c0,1.162,0.952,2.112,2.112,2.112h16.406c1.162,0,1.459,0.688,0.657,1.53L65.456,92.736z"/>
	</g>
	<g>
		<path fill="#FFFFFF" d="M96.579,108.345c0,1.161-0.951,2.112-2.113,2.112H33.533c-1.162,0-2.112-0.951-2.112-2.112v-4.71
			c0-1.164,0.95-2.113,2.112-2.113h60.933c1.162,0,2.113,0.949,2.113,2.113V108.345z"/>
	</g>
</g>
</svg>
