<svg xmlns="http://www.w3.org/2000/svg" viewBox="0 0 128 128">
<g>
	<path fill="#414042" d="M121.5,110.5c0,1.65-1.35,3-3,3H9.5c-1.65,0-3-1.35-3-3v-1c0-1.65,1.35-3,3-3h109c1.65,0,3,1.35,3,3V110.5z
		"/>
</g>
<g>
	<path fill="#414042" d="M114,94.5c0,1.65-1.35,3-3,3H17c-1.65,0-3-1.35-3-3v-1c0-1.65,1.35-3,3-3h94c1.65,0,3,1.35,3,3V94.5z"/>
</g>
<g>
	<path fill="#414042" d="M39.909,94.5c0,1.65-0.905,3-2.011,3h-9.387c-1.106,0-2.011-1.35-2.011-3v-44c0-1.65,0.905-3,2.011-3h9.387
		c1.106,0,2.011,1.35,2.011,3V94.5z"/>
</g>
<g>
	<path fill="#414042" d="M70.704,94.5c0,1.65-0.904,3-2.011,3h-9.387c-1.106,0-2.011-1.35-2.011-3v-44c0-1.65,0.905-3,2.011-3h9.387
		c1.106,0,2.011,1.35,2.011,3V94.5z"/>
</g>
<g>
	<path fill="#414042" d="M101.5,94.5c0,1.65-0.905,3-2.012,3h-9.386c-1.106,0-2.012-1.35-2.012-3v-44c0-1.65,0.905-3,2.012-3h9.386
		c1.106,0,2.012,1.35,2.012,3V94.5z"/>
</g>
<g>
	<path fill="#414042" d="M9.5,37.5c-1.65,0-1.803-0.625-0.34-1.388L61.34,8.888c1.463-0.763,3.857-0.763,5.32,0l52.18,27.225
		c1.463,0.763,1.311,1.388-0.34,1.388L9.5,37.5L9.5,37.5z"/>
</g>
</svg>
