<?xml version="1.0" encoding="utf-8"?>
<!-- Generator: Adobe Illustrator 19.0.0, SVG Export Plug-In . SVG Version: 6.00 Build 0)  -->
<svg version="1.1" id="Layer_1" xmlns="http://www.w3.org/2000/svg" xmlns:xlink="http://www.w3.org/1999/xlink" x="0px" y="0px"
	 viewBox="0 0 30 30" style="enable-background:new 0 0 30 30;" xml:space="preserve">
<style type="text/css">
	.st0{fill:#414042;fill-opacity:0.6;}
	.st1{fill:#FFFFFF;}
</style>
<path id="XMLID_1_" class="st0" d="M6.6,26.5l-5.8-10c-0.5-0.9-0.5-2.1,0-3l5.8-10C7.2,2.6,8.2,2,9.2,2h11.5c1.1,0,2.1,0.6,2.6,1.5
	l5.8,10c0.5,0.9,0.5,2.1,0,3l-5.8,10c-0.5,0.9-1.5,1.5-2.6,1.5H9.2C8.2,28,7.2,27.4,6.6,26.5z"/>
<g id="XMLID_5_">
	<path id="XMLID_2_" class="st1" d="M19.8,12.1h-9.6c-0.6,0-1-0.5-1-1v0c0-0.6,0.5-1,1-1h9.6c0.6,0,1,0.5,1,1v0
		C20.8,11.6,20.4,12.1,19.8,12.1z"/>
	<path id="XMLID_3_" class="st1" d="M19.8,16h-9.6c-0.6,0-1-0.5-1-1v0c0-0.6,0.5-1,1-1h9.6c0.6,0,1,0.5,1,1v0
		C20.8,15.6,20.4,16,19.8,16z"/>
	<path id="XMLID_4_" class="st1" d="M19.8,20h-9.6c-0.6,0-1-0.5-1-1v0c0-0.6,0.5-1,1-1h9.6c0.6,0,1,0.5,1,1v0
		C20.8,19.5,20.4,20,19.8,20z"/>
</g>
</svg>
