<?xml version="1.0" encoding="utf-8"?>
<svg version="1.1" id="Layer_1" xmlns="http://www.w3.org/2000/svg" xmlns:xlink="http://www.w3.org/1999/xlink" x="0px" y="0px"
	 viewBox="0 0 30 30" style="enable-background:new 0 0 30 30;" xml:space="preserve">
<style type="text/css">
	.st0{fill:#414042;fill-opacity:0.6;}
	.st1{fill:#FFFFFF;}
</style>
<path id="XMLID_1_" class="st0" d="M6.6,26.5l-5.8-10c-0.5-0.9-0.5-2.1,0-3l5.8-10C7.2,2.6,8.2,2,9.2,2h11.5c1.1,0,2.1,0.6,2.6,1.5
	l5.8,10c0.5,0.9,0.5,2.1,0,3l-5.8,10c-0.5,0.9-1.5,1.5-2.6,1.5H9.2C8.2,28,7.2,27.4,6.6,26.5z"/>
<g id="XMLID_5_">
	<path id="XMLID_2_" class="st1" d="M19.8,12.1h-9.6c-0.6,0-1-0.5-1-1v0c0-0.6,0.5-1,1-1h9.6c0.6,0,1,0.5,1,1v0
		C20.8,11.6,20.4,12.1,19.8,12.1z">
		<animate attributeName="d" id="toArrow1" dur="200ms" begin="indefinite" fill="freeze" values="M19.809,12.058l-9.6,0.084c-0.6,0.005-1.004-0.491-1.009-0.991l0,0
	c-0.005-0.6,0.492-1.004,0.992-1.009l9.599-0.084c0.6-0.005,1.004,0.491,1.009,0.991l0,0C20.805,11.649,20.408,12.053,19.809,12.058
	z; M14.331,9.833l-3.266,5.668c-0.3,0.52-0.933,0.616-1.366,0.366l0,0
		c-0.52-0.3-0.616-0.933-0.366-1.366L12.6,8.833c0.3-0.52,0.933-0.616,1.366-0.366l0,0C14.399,8.717,14.631,9.313,14.331,9.833z" keyTimes="0; 1" calcMode="linear" />
		<animate attributeName="d" id="toHam1" dur="200ms" begin="indefinite" fill="freeze" values="M14.331,9.833l-3.266,5.668c-0.3,0.52-0.933,0.616-1.366,0.366l0,0
		c-0.52-0.3-0.616-0.933-0.366-1.366L12.6,8.833c0.3-0.52,0.933-0.616,1.366-0.366l0,0C14.399,8.717,14.631,9.313,14.331,9.833z; M19.809,12.058l-9.6,0.084c-0.6,0.005-1.004-0.491-1.009-0.991l0,0
	c-0.005-0.6,0.492-1.004,0.992-1.009l9.599-0.084c0.6-0.005,1.004,0.491,1.009,0.991l0,0C20.805,11.649,20.408,12.053,19.809,12.058
	z; M19.8,12.1h-9.6c-0.6,0-1-0.5-1-1v0c0-0.6,0.5-1,1-1h9.6c0.6,0,1,0.5,1,1v0
		C20.8,11.6,20.4,12.1,19.8,12.1z" keyTimes="0; 0.99; 1" calcMode="linear" />
	</path>
	<path id="XMLID_3_" class="st1" d="M19.8,16h-9.6c-0.6,0-1-0.5-1-1v0c0-0.6,0.5-1,1-1h9.6c0.6,0,1,0.5,1,1v0
		C20.8,15.6,20.4,16,19.8,16z">
	</path>
	<path id="XMLID_4_" class="st1" d="M19.8,20h-9.6c-0.6,0-1-0.5-1-1v0c0-0.6,0.5-1,1-1h9.6c0.6,0,1,0.5,1,1v0
		C20.8,19.5,20.4,20,19.8,20z">
		<animate attributeName="d" id="toArrow2" dur="200ms" begin="indefinite" fill="freeze" values="M19.792,20.042l-9.6-0.084c-0.6-0.005-0.996-0.509-0.992-1.009l0,0
	c0.005-0.6,0.509-0.995,1.009-0.991l9.6,0.084c0.6,0.005,0.994,0.509,0.99,1.009l0,0C20.795,19.551,20.392,20.047,19.792,20.042z; M12.552,21.177L9.286,15.5c-0.301-0.519-0.067-1.116,0.365-1.367l0,0
	c0.52-0.299,1.116-0.066,1.367,0.367l3.266,5.677c0.301,0.519,0.066,1.115-0.368,1.365l0,0
	C13.483,21.792,12.851,21.695,12.552,21.177z" keyTimes="0; 1" calcMode="linear" />
        <animate attributeName="d" id="toHam2" dur="200ms" begin="indefinite" fill="freeze" values="M12.552,21.177L9.286,15.5c-0.301-0.519-0.067-1.116,0.365-1.367l0,0
	c0.52-0.299,1.116-0.066,1.367,0.367l3.266,5.677c0.301,0.519,0.066,1.115-0.368,1.365l0,0
	C13.483,21.792,12.851,21.695,12.552,21.177z; M19.792,20.042l-9.6-0.084c-0.6-0.005-0.996-0.509-0.992-1.009l0,0
	c0.005-0.6,0.509-0.995,1.009-0.991l9.6,0.084c0.6,0.005,0.994,0.509,0.99,1.009l0,0C20.795,19.551,20.392,20.047,19.792,20.042z; M19.8,20h-9.6c-0.6,0-1-0.5-1-1v0c0-0.6,0.5-1,1-1h9.6c0.6,0,1,0.5,1,1v0
		C20.8,19.5,20.4,20,19.8,20z" keyTimes="0; 0.99; 1" calcMode="linear" />
	</path>
</g>
</svg>
