<?xml version="1.0" encoding="utf-8"?>
<!-- Generator: Adobe Illustrator 16.0.0, SVG Export Plug-In . SVG Version: 6.00 Build 0)  -->
<!DOCTYPE svg PUBLIC "-//W3C//DTD SVG 1.1//EN" "http://www.w3.org/Graphics/SVG/1.1/DTD/svg11.dtd">
<svg version="1.1" id="Layer_1" xmlns="http://www.w3.org/2000/svg" xmlns:xlink="http://www.w3.org/1999/xlink" x="0px" y="0px"
	 width="29.711px" height="24.502px" viewBox="0 0 29.711 24.502" enable-background="new 0 0 29.711 24.502" xml:space="preserve">
<g>
	<defs>
		<rect id="SVGID_1_" x="-16.208" y="-8.569" width="45.92" height="41.64"/>
	</defs>
	<clipPath id="SVGID_2_">
		<use xlink:href="#SVGID_1_"  overflow="visible"/>
	</clipPath>
	<path clip-path="url(#SVGID_2_)" fill="#ffffff" d="M2.963,19.512h7.807c0.357,0,0.688-0.191,0.866-0.5l3.614-6.261
		c0.18-0.31,0.18-0.691,0-1l-3.614-6.262c-0.179-0.309-0.509-0.5-0.866-0.5H2.963L0.082,0h13.569c0.356,0,0.688,0.19,0.866,0.5
		l6.496,11.251c0.179,0.309,0.179,0.69,0,1l-6.496,11.251c-0.179,0.309-0.51,0.5-0.866,0.5H0.082L2.963,19.512z"/>
	<path clip-path="url(#SVGID_2_)" fill="#414042" d="M17.156,0h5.06c0.358,0,0.688,0.191,0.866,0.5l6.496,11.251
		c0.179,0.31,0.179,0.691,0,1l-6.496,11.251c-0.179,0.311-0.508,0.5-0.866,0.5h-5.191l6.791-11.751c0.18-0.309,0.18-0.69,0-1
		L17.156,0z"/>
</g>
</svg>
