<?xml version="1.0" encoding="utf-8"?>
<!-- Generator: Adobe Illustrator 16.0.0, SVG Export Plug-In . SVG Version: 6.00 Build 0)  -->
<!DOCTYPE svg PUBLIC "-//W3C//DTD SVG 1.1//EN" "http://www.w3.org/Graphics/SVG/1.1/DTD/svg11.dtd">
<svg version="1.1" id="Layer_1" xmlns="http://www.w3.org/2000/svg" xmlns:xlink="http://www.w3.org/1999/xlink" x="0px" y="0px"
	 width="94.384px" height="81.738px" viewBox="0 0 94.384 81.738" enable-background="new 0 0 94.384 81.738" xml:space="preserve">
<g>
	<path fill="#414042" d="M25.596,81.738c-1.1,0-2.45-0.779-3-1.732L1,42.602c-0.55-0.953-0.55-2.512,0-3.464L22.596,1.732
		c0.55-0.953,1.9-1.732,3-1.732h43.192c1.1,0,2.45,0.779,3,1.732l21.596,37.405c0.55,0.953,0.55,2.511,0,3.464L71.788,80.006
		c-0.55,0.953-1.9,1.732-3,1.732H25.596z"/>
	<path fill="none" stroke="#000000" stroke-width="0.25" stroke-miterlimit="10" d="M25.596,81.738c-1.1,0-2.45-0.779-3-1.732
		L1,42.602c-0.55-0.953-0.55-2.512,0-3.464L22.596,1.732c0.55-0.953,1.9-1.732,3-1.732h43.192c1.1,0,2.45,0.779,3,1.732
		l21.596,37.405c0.55,0.953,0.55,2.511,0,3.464L71.788,80.006c-0.55,0.953-1.9,1.732-3,1.732H25.596z"/>
</g>
<g>
	<path fill="#00AEEF" d="M46.035,67.17c-1.1,0-2.449-0.78-2.998-1.733l-2.17-3.767c-0.549-0.953-0.098-1.732,1.002-1.732
		l16.503,0.011c1.1,0,2.45-0.778,3-1.731l9.017-15.616c0.55-0.953,0.55-2.512,0-3.464l-13.19-22.835c-0.55-0.953-0.1-1.732,1-1.732
		h4.341c1.1,0,2.45,0.779,3,1.732l13.186,22.836c0.55,0.953,0.55,2.511,0,3.464L65.539,65.438c-0.55,0.953-1.9,1.732-3,1.732H46.035
		z"/>
	<path fill="none" stroke="#00AEEF" stroke-width="0.25" stroke-miterlimit="10" d="M46.035,67.17c-1.1,0-2.449-0.78-2.998-1.733
		l-2.17-3.767c-0.549-0.953-0.098-1.732,1.002-1.732l16.503,0.011c1.1,0,2.45-0.778,3-1.731l9.017-15.616
		c0.55-0.953,0.55-2.512,0-3.464l-13.19-22.835c-0.55-0.953-0.1-1.732,1-1.732h4.341c1.1,0,2.45,0.779,3,1.732l13.186,22.836
		c0.55,0.953,0.55,2.511,0,3.464L65.539,65.438c-0.55,0.953-1.9,1.732-3,1.732H46.035z"/>
</g>
<g>
	<path fill="#F26522" d="M31.843,67.17c-1.1,0-2.45-0.779-3-1.732L15.659,42.602c-0.55-0.953-0.55-2.512,0-3.464L28.843,16.3
		c0.55-0.953,1.9-1.732,3-1.732h15.502c1.1,0,2.45,0.779,3.001,1.731l2.18,3.771c0.551,0.952,0.101,1.731-0.999,1.73l-15.517-0.01
		c-1.1-0.001-2.45,0.778-3,1.73l-9.016,15.617c-0.55,0.953-0.55,2.511,0,3.463l13.189,22.837c0.55,0.952,0.101,1.731-1,1.731H31.843
		z"/>
	<path fill="none" stroke="#F26522" stroke-width="0.25" stroke-miterlimit="10" d="M31.843,67.17c-1.1,0-2.45-0.779-3-1.732
		L15.659,42.602c-0.55-0.953-0.55-2.512,0-3.464L28.843,16.3c0.55-0.953,1.9-1.732,3-1.732h15.502c1.1,0,2.45,0.779,3.001,1.731
		l2.18,3.771c0.551,0.952,0.101,1.731-0.999,1.73l-15.517-0.01c-1.1-0.001-2.45,0.778-3,1.73l-9.016,15.617
		c-0.55,0.953-0.55,2.511,0,3.463l13.189,22.837c0.55,0.952,0.101,1.731-1,1.731H31.843z"/>
</g>
</svg>
