<svg version="1.1" id="Layer_1" xmlns="http://www.w3.org/2000/svg" xmlns:xlink="http://www.w3.org/1999/xlink" x="0px" y="0px"
	 width="310px" height="50px" viewBox="0 0 310 50" enable-background="new 0 0 310 50" xml:space="preserve">
<defs>
    <clipPath id="textClip">
        <path d="M37.006,4.753c0.678,0,1.356,0.388,1.647,0.969l10.559,18.31c0.388,0.581,0.388,1.356,0,1.938l-10.559,18.31
            c-0.388,0.581-0.969,0.969-1.647,0.969H14.725V4.753H37.006z">
            <animate attributeName="d" id="moveTextClip1" class="expandName" dur="800ms" begin="indefinite" fill="freeze" values="M37.006,4.75c0.678,0,1.356,0.388,1.647,0.969l10.559,18.31c0.388,0.581,0.388,1.356,0,1.938L38.653,44.276
	c-0.388,0.582-0.969,0.971-1.647,0.971l-22.281,0.002V4.753L37.006,4.75z; M283.419,4.776c0.679,0,1.356,0.388,1.647,0.969l10.559,18.31c0.389,0.581,0.389,1.356,0,1.938
	l-10.559,18.309c-0.389,0.582-0.969,0.971-1.647,0.971L14.725,45.249V4.753L283.419,4.776z" keyTimes="0; 1" calcMode="linear" />
            <animate attributeName="d" id="moveTextClip2" class="hideName" dur="800ms" begin="indefinite" fill="freeze" values="M283.419,4.776c0.679,0,1.356,0.388,1.647,0.969l10.559,18.31c0.389,0.581,0.389,1.356,0,1.938
	l-10.559,18.309c-0.389,0.582-0.969,0.971-1.647,0.971L14.725,45.249V4.753L283.419,4.776z; M37.006,4.75c0.678,0,1.356,0.388,1.647,0.969l10.559,18.31c0.388,0.581,0.388,1.356,0,1.938L38.653,44.276
	c-0.388,0.582-0.969,0.971-1.647,0.971l-22.281,0.002V4.753L37.006,4.75z" keyTimes="0; 1" calcMode="linear" />
        </path>
    </clipPath>
    <clipPath id="dClip">
        <path d="M42.246,4.802l7.812,0c0.678,0,1.355,0.388,1.646,0.969l10.463,18.31c0.387,0.581,0.387,1.356,0,1.938
            l-10.56,18.309c-0.388,0.582-0.969,0.969-1.647,0.969h-7.812l4.457-7.557l6.939-11.721c0.388-0.582,0.388-1.357,0-1.938
            l-6.939-11.721L42.246,4.802z">
            <animate attributeName="d" id="moveDClip1" class="expandName" dur="400ms" begin="indefinite" fill="freeze" values="M42.201,4.722l7.824-0.013c0.678,0,1.355,0.388,1.646,0.969l10.463,18.31c0.387,0.581,0.387,1.357,0,1.939
	L51.574,44.235c-0.387,0.582-0.969,0.969-1.646,0.969l-7.824,0.012l4.457-7.557L53.5,25.938c0.389-0.582,0.389-1.357,0-1.938
	l-6.939-11.721L42.201,4.722z; M155.066,4.826l7.824-0.013c0.678,0,1.355,0.388,1.646,0.969L175,24.092c0.387,0.581,0.387,1.356,0,1.939
	L164.439,44.34c-0.387,0.582-0.969,0.969-1.646,0.969l-7.824,0.012l4.457-7.557l6.939-11.721c0.389-0.583,0.389-1.358,0-1.939
	l-6.939-11.721L155.066,4.826z; M155.066,4.826l22.281-0.074c0.678,0,1.355,0.388,1.646,0.969l10.463,18.31c0.387,0.581,0.387,1.356,0,1.939
	l-10.561,18.309c-0.387,0.582-0.969,0.969-1.646,0.969l-22.281,0.073l4.457-7.557l6.939-11.721c0.389-0.583,0.389-1.358,0-1.939
	l-6.939-11.721L155.066,4.826z" keyTimes="0; 0.88; 1" calcMode="linear" /> 
            <animate attributeName="d" id="moveDClip2" class="hideName" dur="400ms" begin="indefinite" fill="freeze" values="M155.066,4.826l22.281-0.074c0.678,0,1.355,0.388,1.646,0.969l10.463,18.31c0.387,0.581,0.387,1.356,0,1.939
	l-10.561,18.309c-0.387,0.582-0.969,0.969-1.646,0.969l-22.281,0.073l4.457-7.557l6.939-11.721c0.389-0.583,0.389-1.358,0-1.939
	l-6.939-11.721L155.066,4.826z; M155.066,4.826l7.824-0.013c0.678,0,1.355,0.388,1.646,0.969L175,24.092c0.387,0.581,0.387,1.356,0,1.939
	L164.439,44.34c-0.387,0.582-0.969,0.969-1.646,0.969l-7.824,0.012l4.457-7.557l6.939-11.721c0.389-0.583,0.389-1.358,0-1.939
	l-6.939-11.721L155.066,4.826z; M42.201,4.722l7.824-0.013c0.678,0,1.355,0.388,1.646,0.969l10.463,18.31c0.387,0.581,0.387,1.357,0,1.939
	L51.574,44.235c-0.387,0.582-0.969,0.969-1.646,0.969l-7.824,0.012l4.457-7.557L53.5,25.938c0.389-0.582,0.389-1.357,0-1.938
	l-6.939-11.721L42.201,4.722z" keyTimes="0; 0.12; 1" calcMode="linear" /> 
        </path>
    </clipPath>
</defs>
<path fill="#FFFFFF" clip-path="url(#textClip)" d="M19.084,37.69h13.563c0.678,0,1.356-0.388,1.647-0.969l6.2-10.753c0.388-0.581,0.388-1.356,0-1.938
	l-6.2-10.753c-0.388-0.582-0.969-0.969-1.647-0.969H19.084l-4.359-7.557h22.281c0.678,0,1.356,0.388,1.647,0.969l10.559,18.31
	c0.388,0.581,0.388,1.356,0,1.938l-10.559,18.31c-0.388,0.581-0.969,0.969-1.647,0.969H14.725L19.084,37.69z"/>
<path fill="#FFFFFF" clip-path="url(#textClip)" d="M67.909,41.565v-10.85c0-0.679-0.387-1.356-0.969-1.647l-2.906-1.646c-0.581-0.388-1.356-0.388-1.938,0
	l-2.906,1.646c-0.581,0.388-0.969,0.969-0.969,1.647v3.294c0,0.678,0.388,1.355,0.969,1.646l3.875,2.229v7.266l-10.172-5.91
	c-0.581-0.387-0.969-0.969-0.969-1.646V26.938c0-0.678,0.388-1.356,0.969-1.647l9.203-5.328c0.582-0.387,1.356-0.387,1.938,0
	l9.203,5.328c0.582,0.387,0.969,0.969,0.969,1.647v18.115"/>
<path fill="#FFFFFF" clip-path="url(#textClip)" d="M92.709,41.565V30.813c0-0.678-0.388-1.356-0.969-1.646l-2.81-1.647c-0.581-0.388-1.356-0.388-1.938,0
	l-2.809,1.647c-0.582,0.387-0.969,0.969-0.969,1.646v10.753l-6.394,3.682V27.034c0-0.678,0.388-1.356,0.969-1.646l9.203-5.328
	c0.582-0.388,1.356-0.388,1.938,0l9.203,5.328c0.582,0.388,0.969,0.969,0.969,1.646V45.15L92.709,41.565z"/>
<path fill="#FFFFFF" clip-path="url(#textClip)" d="M106.659,43.987l-1.259,0.775c-0.581,0.388-1.356,0.388-1.938,0l-1.259-0.775
	c-0.581-0.388-0.969-0.969-0.969-1.646V27.034c0-0.678,0.388-1.356,0.969-1.646l1.259-0.775c0.582-0.387,1.356-0.387,1.938,0
	l1.259,0.775c0.582,0.388,0.969,0.969,0.969,1.646v15.21C107.628,42.922,107.337,43.6,106.659,43.987z"/>
<path fill="#FFFFFF" clip-path="url(#textClip)" d="M131.556,45.247h-10.559c-0.388,0-0.678-0.097-0.969-0.291l-9.688-5.618
	c-0.582-0.388-0.969-0.969-0.969-1.647v-10.56c0-0.678,0.387-1.355,0.969-1.646l9.203-5.328c0.581-0.388,1.356-0.388,1.938,0
	l9.203,5.328c0.581,0.388,0.969,0.969,0.969,1.646v2.52v2.809h-6.2v-1.743c0-0.679-0.388-1.356-0.969-1.744l-3.003-1.743
	c-0.582-0.388-1.356-0.388-1.938,0l-3.003,1.743c-0.581,0.388-0.969,0.969-0.969,1.647v3.487c0,0.678,0.388,1.356,0.969,1.646
	l3.972,2.325L131.556,45.247z"/>
<path fill="#FFFFFF" clip-path="url(#textClip)" d="M140.275,43.987l-1.259,0.775c-0.581,0.388-1.356,0.388-1.938,0l-1.259-0.775
	c-0.582-0.388-0.969-0.969-0.969-1.646V7.756c0-0.678,0.387-1.356,0.969-1.647l1.259-0.775c0.581-0.388,1.356-0.388,1.938,0
	l1.259,0.775c0.582,0.388,0.969,0.969,0.969,1.647v34.488C141.244,42.922,140.856,43.6,140.275,43.987z"/>
<path fill="#414042" clip-path="url(#dClip)" d="M32.135,37.69h13.563c0.678,0,1.355-0.388,1.646-0.969l6.2-10.753c0.388-0.581,0.388-1.356,0-1.938
	l-6.2-10.753c-0.388-0.582-0.969-0.969-1.646-0.969H32.135l-4.359-7.557h22.281c0.678,0,1.355,0.388,1.646,0.969l10.463,18.31
	c0.387,0.581,0.387,1.356,0,1.938l-10.56,18.31c-0.388,0.581-0.969,0.969-1.647,0.969H27.678L32.135,37.69z">
    <animate attributeName="d" id="moveD1" class="expandName" dur="400ms" begin="indefinite" fill="freeze" values="M32.135,37.69h13.563c0.678,0,1.355-0.388,1.646-0.969l6.2-10.753c0.388-0.581,0.388-1.356,0-1.938
	l-6.2-10.753c-0.388-0.582-0.969-0.969-1.646-0.969H32.135l-4.359-7.557h22.281c0.678,0,1.355,0.388,1.646,0.969l10.463,18.31
	c0.387,0.581,0.387,1.356,0,1.938l-10.56,18.31c-0.388,0.581-0.969,0.969-1.647,0.969H27.678L32.135,37.69z; M144.956,37.715h13.563c0.678,0,1.355-0.387,1.646-0.969l6.2-10.752c0.388-0.582,0.388-1.357,0-1.938
	l-6.2-10.753c-0.388-0.582-0.969-0.969-1.646-0.969h-13.563l-4.359-7.557h22.281c0.678,0,1.355,0.388,1.646,0.969l10.463,18.31
	c0.387,0.581,0.387,1.356,0,1.938l-10.56,18.309c-0.388,0.582-0.969,0.969-1.647,0.969h-22.281L144.956,37.715z; M159.456,37.666h13.563c0.678,0,1.355-0.387,1.646-0.969l6.2-10.752c0.388-0.582,0.388-1.357,0-1.938
	l-6.2-10.753c-0.388-0.582-0.969-0.969-1.646-0.969h-13.563l-4.359-7.557h22.281c0.678,0,1.355,0.388,1.646,0.969l10.463,18.31
	c0.387,0.581,0.387,1.356,0,1.938l-10.56,18.309c-0.388,0.582-0.969,0.969-1.647,0.969h-22.281L159.456,37.666z" keyTimes="0; 0.88; 1" calcMode="linear" /> 
    <animate attributeName="d" id="moveD2" class="hideName" dur="400ms" begin="indefinite" fill="freeze" values="M159.456,37.666h13.563c0.678,0,1.355-0.387,1.646-0.969l6.2-10.752c0.388-0.582,0.388-1.357,0-1.938
	l-6.2-10.753c-0.388-0.582-0.969-0.969-1.646-0.969h-13.563l-4.359-7.557h22.281c0.678,0,1.355,0.388,1.646,0.969l10.463,18.31
	c0.387,0.581,0.387,1.356,0,1.938l-10.56,18.309c-0.388,0.582-0.969,0.969-1.647,0.969h-22.281L159.456,37.666z; M144.956,37.715h13.563c0.678,0,1.355-0.387,1.646-0.969l6.2-10.752c0.388-0.582,0.388-1.357,0-1.938
	l-6.2-10.753c-0.388-0.582-0.969-0.969-1.646-0.969h-13.563l-4.359-7.557h22.281c0.678,0,1.355,0.388,1.646,0.969l10.463,18.31
	c0.387,0.581,0.387,1.356,0,1.938l-10.56,18.309c-0.388,0.582-0.969,0.969-1.647,0.969h-22.281L144.956,37.715z; M32.135,37.69h13.563c0.678,0,1.355-0.388,1.646-0.969l6.2-10.753c0.388-0.581,0.388-1.356,0-1.938
	l-6.2-10.753c-0.388-0.582-0.969-0.969-1.646-0.969H32.135l-4.359-7.557h22.281c0.678,0,1.355,0.388,1.646,0.969l10.463,18.31
	c0.387,0.581,0.387,1.356,0,1.938l-10.56,18.31c-0.388,0.581-0.969,0.969-1.647,0.969H27.678L32.135,37.69z" keyTimes="0; 0.12; 1" calcMode="linear" /> 
</path>
<path fill="#414042" clip-path="url(#textClip)" d="M208.862,41.565v-10.85c0-0.679-0.388-1.356-0.969-1.647l-2.906-1.646c-0.581-0.388-1.356-0.388-1.938,0
	l-2.906,1.646c-0.581,0.388-0.969,0.969-0.969,1.647v3.294c0,0.678,0.388,1.355,0.969,1.646l3.875,2.229v7.266l-10.172-5.91
	c-0.581-0.387-0.969-0.969-0.969-1.646V26.938c0-0.678,0.388-1.356,0.969-1.647l9.203-5.328c0.581-0.387,1.356-0.387,1.938,0
	l9.203,5.328c0.581,0.387,0.969,0.969,0.969,1.647v18.115"/>
<path fill="#414042" clip-path="url(#textClip)" d="M261.369,45.15h-10.56c-0.388,0-0.679-0.098-0.969-0.291l-9.688-5.619c-0.581-0.387-0.969-0.969-0.969-1.646
	v-10.56c0-0.678,0.388-1.356,0.969-1.646l9.203-5.328c0.581-0.388,1.356-0.388,1.938,0l9.203,5.328
	c0.581,0.388,0.969,0.969,0.969,1.646v2.519v2.81h-6.2v-1.743c0-0.679-0.388-1.356-0.969-1.744l-3.003-1.744
	c-0.581-0.387-1.356-0.387-1.938,0l-3.003,1.744c-0.582,0.388-0.969,0.969-0.969,1.646v3.488c0,0.678,0.387,1.355,0.969,1.646
	l3.972,2.325L261.369,45.15z"/>
<path fill="#414042" clip-path="url(#textClip)" d="M280.744,22.966V34.01c0,0.678-0.388,1.355-0.969,1.646l-2.906,1.744c-0.582,0.387-1.356,0.387-1.938,0
	l-2.906-1.744c-0.582-0.388-0.969-0.969-0.969-1.646V22.966l-6.104-3.391v18.019c0,0.678,0.388,1.356,0.969,1.646l9.106,5.231
	c0.581,0.388,1.356,0.388,1.938,0l9.106-5.231c0.581-0.387,0.969-0.969,0.969-1.646V19.478L280.744,22.966z"/>
<path fill="#414042" clip-path="url(#textClip)" d="M231.24,44.666l-2.615-1.551l-3.584-6.394v5.425c0,0.679-0.388,1.356-0.969,1.647l-1.26,0.774
	c-0.581,0.388-1.356,0.388-1.938,0l-1.26-0.774c-0.581-0.388-0.969-0.969-0.969-1.647V7.756c0-0.678,0.388-1.356,0.969-1.647
	l1.26-0.775c0.581-0.388,1.356-0.388,1.938,0l1.26,0.775c0.581,0.388,0.969,0.969,0.969,1.647v23.832l3.293-5.91
	c0.194-0.29,0.388-0.581,0.679-0.774l2.131-1.26c0.581-0.387,1.356-0.387,1.938,0l0.969,0.582c0.969,0.581,1.26,1.744,0.679,2.616
	l-3.682,6.394c-0.388,0.581-0.388,1.356,0,1.938l3.682,6.394c0.581,0.969,0.193,2.132-0.679,2.616l-0.969,0.581
	C232.597,45.053,231.822,45.053,231.24,44.666z"/>
</svg>
