<?xml version="1.0" encoding="utf-8"?>
<!-- Generator: Adobe Illustrator 19.0.0, SVG Export Plug-In . SVG Version: 6.00 Build 0)  -->
<svg version="1.1" id="Layer_1" xmlns="http://www.w3.org/2000/svg" xmlns:xlink="http://www.w3.org/1999/xlink" x="0px" y="0px"
	 viewBox="0 0 320 50" style="enable-background:new 0 0 320 50;" xml:space="preserve">
<style type="text/css">
	.st0{fill:#FFFFFF;}
    .st1{fill:#414042;}
</style>
<path class="st0" d="M19.7,38.1h14c0.7,0,1.4-0.4,1.7-1L41.8,26c0.4-0.6,0.4-1.4,0-2l-6.4-11.1c-0.4-0.6-1-1-1.7-1h-14l-4.5-7.8h23
	c0.7,0,1.4,0.4,1.7,1L50.8,24c0.4,0.6,0.4,1.4,0,2L39.9,44.9c-0.4,0.6-1,1-1.7,1h-23L19.7,38.1z"/>
<path class="st0" d="M70.1,42.1V30.9c0-0.7-0.4-1.4-1-1.7l-3-1.7c-0.6-0.4-1.4-0.4-2,0l-3,1.7c-0.6,0.4-1,1-1,1.7v3.4
	c0,0.7,0.4,1.4,1,1.7l4,2.3l0,7.5l-10.5-6.1c-0.6-0.4-1-1-1-1.7v-11c0-0.7,0.4-1.4,1-1.7l9.5-5.5c0.6-0.4,1.4-0.4,2,0l9.5,5.5
	c0.6,0.4,1,1,1,1.7v18.7"/>
<path class="st0" d="M95.7,42.1V31c0-0.7-0.4-1.4-1-1.7l-2.9-1.7c-0.6-0.4-1.4-0.4-2,0l-2.9,1.7c-0.6,0.4-1,1-1,1.7v11.1l-6.6,3.8
	V27.1c0-0.7,0.4-1.4,1-1.7l9.5-5.5c0.6-0.4,1.4-0.4,2,0l9.5,5.5c0.6,0.4,1,1,1,1.7v18.7L95.7,42.1z"/>
<path class="st0" d="M110.1,44.6l-1.3,0.8c-0.6,0.4-1.4,0.4-2,0l-1.3-0.8c-0.6-0.4-1-1-1-1.7V27.1c0-0.7,0.4-1.4,1-1.7l1.3-0.8
	c0.6-0.4,1.4-0.4,2,0l1.3,0.8c0.6,0.4,1,1,1,1.7v15.7C111.1,43.5,110.8,44.2,110.1,44.6z"/>
<path class="st0" d="M135.8,45.9h-10.9c-0.4,0-0.7-0.1-1-0.3l-10-5.8c-0.6-0.4-1-1-1-1.7V27.2c0-0.7,0.4-1.4,1-1.7l9.5-5.5
	c0.6-0.4,1.4-0.4,2,0l9.5,5.5c0.6,0.4,1,1,1,1.7v2.6l0,2.9l-6.4,0c0,0,0-1.8,0-1.8c0-0.7-0.4-1.4-1-1.8l-3.1-1.8
	c-0.6-0.4-1.4-0.4-2,0l-3.1,1.8c-0.6,0.4-1,1-1,1.7v3.6c0,0.7,0.4,1.4,1,1.7l4.1,2.4L135.8,45.9z"/>
<path class="st0" d="M144.8,44.6l-1.3,0.8c-0.6,0.4-1.4,0.4-2,0l-1.3-0.8c-0.6-0.4-1-1-1-1.7V7.2c0-0.7,0.4-1.4,1-1.7l1.3-0.8
	c0.6-0.4,1.4-0.4,2,0l1.3,0.8c0.6,0.4,1,1,1,1.7v35.6C145.8,43.5,145.4,44.2,144.8,44.6z"/>
<path class="st1" d="M165.3,38.1h14c0.7,0,1.4-0.4,1.7-1l6.4-11.1c0.4-0.6,0.4-1.4,0-2l-6.4-11.1c-0.4-0.6-1-1-1.7-1h-14l-4.5-7.8
	h23c0.7,0,1.4,0.4,1.7,1L196.3,24c0.4,0.6,0.4,1.4,0,2l-10.9,18.9c-0.4,0.6-1,1-1.7,1h-23L165.3,38.1z"/>
<path class="st1" d="M215.6,42.1V30.9c0-0.7-0.4-1.4-1-1.7l-3-1.7c-0.6-0.4-1.4-0.4-2,0l-3,1.7c-0.6,0.4-1,1-1,1.7v3.4
	c0,0.7,0.4,1.4,1,1.7l4,2.3v7.5l-10.5-6.1c-0.6-0.4-1-1-1-1.7v-11c0-0.7,0.4-1.4,1-1.7l9.5-5.5c0.6-0.4,1.4-0.4,2,0l9.5,5.5
	c0.6,0.4,1,1,1,1.7v18.7"/>
<path class="st1" d="M269.8,45.8h-10.9c-0.4,0-0.7-0.1-1-0.3l-10-5.8c-0.6-0.4-1-1-1-1.7V27.1c0-0.7,0.4-1.4,1-1.7l9.5-5.5
	c0.6-0.4,1.4-0.4,2,0l9.5,5.5c0.6,0.4,1,1,1,1.7v2.6l0,2.9h-6.4l0-1.8c0-0.7-0.4-1.4-1-1.8l-3.1-1.8c-0.6-0.4-1.4-0.4-2,0l-3.1,1.8
	c-0.6,0.4-1,1-1,1.7v3.6c0,0.7,0.4,1.4,1,1.7l4.1,2.4L269.8,45.8z"/>
<path class="st1" d="M289.8,22.9v11.4c0,0.7-0.4,1.4-1,1.7l-3,1.8c-0.6,0.4-1.4,0.4-2,0l-3-1.8c-0.6-0.4-1-1-1-1.7V22.9l-6.3-3.5V38
	c0,0.7,0.4,1.4,1,1.7l9.4,5.4c0.6,0.4,1.4,0.4,2,0l9.4-5.4c0.6-0.4,1-1,1-1.7V19.3L289.8,22.9z"/>
<path class="st1" d="M238.7,45.3l-2.7-1.6l-3.7-6.6l0,5.6c0,0.7-0.4,1.4-1,1.7l-1.3,0.8c-0.6,0.4-1.4,0.4-2,0l-1.3-0.8
	c-0.6-0.4-1-1-1-1.7V7.2c0-0.7,0.4-1.4,1-1.7l1.3-0.8c0.6-0.4,1.4-0.4,2,0l1.3,0.8c0.6,0.4,1,1,1,1.7l0,24.6l3.4-6.1
	c0.2-0.3,0.4-0.6,0.7-0.8l2.2-1.3c0.6-0.4,1.4-0.4,2,0l1,0.6c1,0.6,1.3,1.8,0.7,2.7l-3.8,6.6c-0.4,0.6-0.4,1.4,0,2l3.8,6.6
	c0.6,1,0.2,2.2-0.7,2.7l-1,0.6C240.1,45.7,239.3,45.7,238.7,45.3z"/>
</svg>
