<svg xmlns="http://www.w3.org/2000/svg" viewBox="0 0 128 128">
<g opacity="0.7">
	<path fill="#232224" d="M75.258,6.632c-6.191-3.575-16.324-3.575-22.516,0L19.947,25.567c-6.192,3.575-11.258,12.35-11.258,19.5
		v37.867c0,7.15,5.066,15.926,11.258,19.5l23.397,13.51c-6.078-3.664-11.011-12.289-11.011-19.344V58.733
		c0-7.15,5.066-15.925,11.258-19.5l32.794-18.935c6.192-3.575,16.325-3.575,22.517,0L75.258,6.632z"/>
</g>
<path opacity="0.7" fill="#424142" d="M98.902,20.298c-6.191-3.575-16.324-3.575-22.517,0L43.591,39.233
	c-6.192,3.575-11.258,12.35-11.258,19.5V96.6c0,7.054,4.932,15.677,11.008,19.342l9.4,5.428c6.192,3.574,16.325,3.574,22.516,0
	l32.796-18.936c6.191-3.574,11.258-12.35,11.258-19.5V45.066c0-7.15-5.066-15.925-11.258-19.5L98.902,20.298z"/>
</svg>
