<?xml version="1.0" encoding="utf-8"?>
<!-- Generator: Adobe Illustrator 16.0.0, SVG Export Plug-In . SVG Version: 6.00 Build 0)  -->
<!DOCTYPE svg PUBLIC "-//W3C//DTD SVG 1.1//EN" "http://www.w3.org/Graphics/SVG/1.1/DTD/svg11.dtd">
<svg version="1.1" id="Layer_2" xmlns="http://www.w3.org/2000/svg" xmlns:xlink="http://www.w3.org/1999/xlink" x="0px" y="0px"
	 width="41.167px" height="47.333px" viewBox="0 0 41.167 47.333" enable-background="new 0 0 41.167 47.333" xml:space="preserve">
<g>
	<g>
		<g>
			<path fill="#FFFFFF" d="M20.68,46.988c-0.345,0-0.69-0.089-1-0.268L1.369,36.148c-0.002-0.001-0.004-0.003-0.004-0.003
				c-0.001,0-0.002-0.001-0.003-0.002l0,0c-0.43-0.25-0.731-0.636-0.882-1.072l0,0l0,0c-0.034-0.098-0.06-0.198-0.079-0.301
				c-0.023-0.129-0.034-0.261-0.032-0.393V13.271c0-0.714,0.381-1.375,1-1.732L19.68,0.967c0.619-0.357,1.381-0.357,2,0
				l18.313,10.572c0.619,0.357,1,1.018,1,1.732v21.145c0,0.715-0.381,1.375-1,1.732L21.68,46.72
				C21.371,46.899,21.025,46.988,20.68,46.988z M6.354,34.408l14.326,8.271l16.313-9.417V14.426L20.68,5.009L4.369,14.426v16.509
				l2.107-1.229V16.761c0-0.714,0.381-1.375,1-1.732L19.68,7.982c0.619-0.357,1.381-0.357,2,0l12.207,7.046
				c0.619,0.357,1,1.018,1,1.732v14.095c0,0.715-0.381,1.375-1,1.732L21.68,39.634c-0.619,0.357-1.381,0.357-2,0L8.481,33.168
				L6.354,34.408z M10.476,29.702l10.204,5.891l10.207-5.892V17.916L20.68,12.024l-10.204,5.892V29.702z"/>
			<polyline fill="#FFFFFF" points="8.476,30.856 20.68,37.902 32.887,30.856 32.887,16.761 20.68,9.714 8.476,16.761 8.476,30.856 
				2.369,34.416 2.369,13.271 20.68,2.699 38.993,13.271 38.993,34.416 20.68,44.988 2.369,34.416 			"/>
		</g>
	</g>
</g>
</svg>
