<?xml version="1.0" encoding="utf-8"?>
<!-- Generator: Adobe Illustrator 16.0.0, SVG Export Plug-In . SVG Version: 6.00 Build 0)  -->
<!DOCTYPE svg PUBLIC "-//W3C//DTD SVG 1.1//EN" "http://www.w3.org/Graphics/SVG/1.1/DTD/svg11.dtd">
<svg version="1.1" id="Layer_1" xmlns="http://www.w3.org/2000/svg" xmlns:xlink="http://www.w3.org/1999/xlink" x="0px" y="0px"
	 width="42.625px" height="49.313px" viewBox="0 0 42.625 49.313" enable-background="new 0 0 42.625 49.313" xml:space="preserve">
<g id="XMLID_1_">
	<g>
		<g>
			<g>
				<path fill="#414042" d="M31.952,32.807c0.953-0.55,1.732-1.899,1.732-2.999v-10.3c0-1.1-0.779-2.45-1.732-3l-8.905-5.14
					c-0.953-0.55-2.511-0.55-3.464,0l-8.905,5.14c-0.953,0.55-1.732,1.9-1.732,3v10.3c0,1.1,0.78,2.449,1.733,2.999l8.904,5.132
					c0.953,0.55,2.513,0.55,3.466,0L31.952,32.807z M40.997,11.826c0.961,0.534,1.748,1.871,1.748,2.971v19.72
					c0,1.1-0.787,2.438-1.748,2.971l-17.874,9.929c-0.961,0.533-2.535,0.534-3.497,0L1.744,37.488
					c-0.962-0.534-1.749-1.871-1.749-2.971v-19.72c0-1.1,0.787-2.437,1.749-2.971l17.883-9.928c0.961-0.534,2.535-0.534,3.497,0
					L40.997,11.826z"/>
			</g>
		</g>
	</g>
</g>
</svg>
