<?xml version="1.0" encoding="utf-8"?>
<!-- Generator: Adobe Illustrator 16.0.0, SVG Export Plug-In . SVG Version: 6.00 Build 0)  -->
<!DOCTYPE svg PUBLIC "-//W3C//DTD SVG 1.1//EN" "http://www.w3.org/Graphics/SVG/1.1/DTD/svg11.dtd">
<svg version="1.1" id="Layer_1" xmlns="http://www.w3.org/2000/svg" xmlns:xlink="http://www.w3.org/1999/xlink" x="0px" y="0px"
	 width="94.384px" height="81.738px" viewBox="0 0 94.384 81.738" enable-background="new 0 0 94.384 81.738" xml:space="preserve">
<polygon fill="#414042" points="23.596,81.738 0,40.869 23.596,0 70.788,0 94.384,40.869 70.788,81.738 "/>
<g id="XMLID_1_">
	<g>
		<g>
			<g>
				<polygon fill="#F26522" points="27.417,67.169 12.23,40.869 27.417,14.569 48.596,14.569 41.432,21.733 31.549,21.733 
					20.502,40.869 31.549,60.005 48.596,60.005 41.432,67.169 				"/>
			</g>
		</g>
		<g>
			<g>
				<polygon fill="none" stroke="#F26522" stroke-width="0.25" stroke-miterlimit="10" points="27.417,67.169 12.23,40.869 
					27.417,14.569 48.596,14.569 41.432,21.733 31.549,21.733 20.502,40.869 31.549,60.005 48.596,60.005 41.432,67.169 				"/>
			</g>
		</g>
	</g>
</g>
<g>
	<polygon fill="#00AEEF" points="47.12,67.17 54.199,59.938 64.057,59.949 75.073,40.868 64.057,21.788 47.106,21.79 54.201,14.569 
		68.224,14.569 83.409,40.869 68.224,67.17 	"/>
	<polygon fill="none" stroke="#00AEEF" stroke-width="0.25" stroke-miterlimit="10" points="47.12,67.17 54.199,59.938 
		64.057,59.949 75.073,40.868 64.057,21.788 47.106,21.79 54.201,14.569 68.224,14.569 83.409,40.869 68.224,67.17 	"/>
</g>
</svg>
