<svg xmlns="http://www.w3.org/2000/svg" xmlns:xlink="http://www.w3.org/1999/xlink" viewBox="0 0 420 256">
<g>
	<defs>
		<rect id="SVGID_1_" x="-1.33" y="-1.805" width="422.66" height="260.174"/>
	</defs>
	<clipPath id="SVGID_2_">
		<use xlink:href="#SVGID_1_"  overflow="visible"/>
	</clipPath>
	<g clip-path="url(#SVGID_2_)">
		<g>
			<path fill-rule="evenodd" clip-rule="evenodd" fill="#292929" d="M248.987,338.923c-22.706,0-45.412,0-68.119,0
				c0.896-2.729,0.88-5.256-0.926-7.761c-1.163-1.613-1.423-4.032-0.325-5.482c2.61-3.444,2.033-7.235,2.024-10.999
				c-0.008-3.026,0.089-5.867,1.786-8.654c1.699-2.789-0.452-9.666-3.354-10.778c-3.996-1.533-3.834-4.094-2.519-7.207
				c1.313-3.105,0.042-4.996-2.783-6.152c-6.48-2.653-7.437-5.375-6.118-12.445c0.91-4.881,3.5-10.439-2.052-14.659
				c-0.492-0.373-0.501-1.522-0.545-2.322c-0.273-4.963-3.038-7.645-7.739-8.611c-1.152-0.237-2.383-0.106-2.683-1.881
				c-0.708-4.199-1.759-4.546-5.703-2.264c-0.605,0.351-1.279,0.628-1.355,1.382c-0.103,1.01,0.639,1.41,1.468,1.665
				c1.147,0.352,3.096,0.703,2.353,2.099c-1.509,2.839,0.919,7.901-4.774,8.521c-1.262,0.138-1.316,1.994-1.195,3.207
				c0.309,3.095-0.588,5.886-1.665,8.726c-1.501,3.961-4.259,5.536-8.276,4.023c-2.511-0.945-4.547-0.336-6.455,1.135
				c-5.92,4.563-10.728,10.226-15.413,15.98c-2.396,2.943-5.754,3.917-9.525,2.527c-2.957-1.088-6.154-1.543-9.166-2.148
				c-2.307-0.464-3.24-1.285-4.678-2.81c-3.172-3.36-5.387-7.608-8.72-10.577c-3.685-3.283-7.605-6.306-11.229-9.729
				c-2.112-1.995-2.235-5.133-4.391-6.562c-4.629-3.07-7.441-6.358-8.068-12.554c-0.716-7.079,4.171-12.065,4.614-18.443
				c0.046-0.661,1.094-1.199,1.499-1.897c1.102-1.899,3.467-2.489,4.326-4.79c2.082-5.574,2.497-5.651,7.981-4.139
				c2.409,0.665,4.674,0.089,6.496-1.459c1.737-1.476,1.068-3.486,0.503-5.354c-1.683-5.558-5.382-7.456-11.966-5.779
				c-3.122,0.795-4.894,0.848-5.85-3.128c-0.634-2.637-1.559-6.898-6.478-5.48c-0.843,0.242-1.303-0.782-1.819-1.426
				c-2.051-2.561-4.101-5.18-3.329-8.719c1.01-4.629-1.614-9.12,0.023-13.949c0.762-2.248,0.633-5.745-1.751-7.983
				c-2.879-2.702-4.246-6.319-6.015-9.697c-1.109-2.118-0.645-4.042,0.966-5.616c3.125-3.053,6.263-6.073,9.197-9.329
				c2.757-3.06,8.215-2.479,9.968,0.698c3.478,6.305,6.106,13.337,13.93,15.853c0.969,0.313,1.124,1.472,1.477,2.358
				c0.49,1.231,0.679,2.865,2.538,2.71c1.74-0.146,2.185-1.52,2.166-2.969c-0.033-2.478,1.55-3.079,3.546-3.718
				c2.594-0.828,5.394-0.269,7.926-1.786c3.567-2.14,7.332-2.687,11.016,0.179c2.187,1.701,4.727,2.724,7.578,2.766
				c1.008,0.015,1.951,0.363,2.458,1.251c3.213,5.636,8.778,4.529,13.83,4.849c1.402,0.089,2.051-0.853,1.77-2.126
				c-0.858-3.891-1.67-7.917-6.214-9.304c-2.007-0.613-2.64-2.069-3.222-3.842c-1.016-3.094-1.927-6.311-3.93-8.92
				c-4.615-6.012-4.824-7.009,0.898-11.653c4.356-3.535,5.161-7.72,4.186-12.777c-0.49-2.54-1.217-5.129-1.121-7.668
				c0.293-7.727-2.725-13.846-8.505-18.669c-1.896-1.583-1.749-2.493,0.226-3.611c2.743-1.555,4.09-3.928,4.001-7.098
				c-0.036-1.292,0.858-2.275,1.191-3.389c1.388-4.639,5.766-7.147,7.755-11.352c0.843-1.782,8.117-3.548,9.056-2.292
				c4.092,5.473,9.589,4.107,14.602,2.651c4.234-1.229,7.946-4.306,9.064-8.799c1.486-5.971-0.362-11.908-2.429-17.439
				c-0.871-2.329-0.637-3.305,0.841-4.82c3.522-3.612,3.496-5.386,0.269-9.465c-0.669-0.847-1.277-1.791-1.692-2.783
				c-2.317-5.521-5.102-10.764-8.591-15.652c-2.272-3.184-2.003-9.71,0.877-10.816c4.771-1.832,7.679-5.998,12.051-8.237
				c4.239-2.17,7.147-9.622,5.078-13.014c-2.2-3.606-5.779-5.573-10.042-5.71c-3.865-0.124-6.844-3.397-5.651-6.59
				c2.107-5.642,2.208-5.831-2.86-8.548c-2.728-1.463-2.438-2.855-0.405-4.116c3.45-2.14,3.067-3.905,0.069-5.99
				c-0.997-0.693-1.663-1.891-2.69-2.506c-3.623-2.167-2.829-4.25-0.361-6.832c2.792-2.921,6.292-5.34,7.535-9.507
				c4.377,0,8.754,0,13.131,0c-0.628,2.076-2.482,4.043-1.958,6.146c1.457,5.854,2.721,11.914,5.337,17.27
				c2,4.093,3.649,8.149,4.729,12.513c0.259,1.049,0.5,2.119,0.925,3.104c0.28,0.647,12.61,2.295,13.053,1.706
				c3.991-5.319,10.369-7.35,15.406-11.231c3.639-2.804,8.445-4.502,12.575-3.499c5.834,1.417,11.816,3.177,16.942,6.878
				c3.153,2.276,6.433,4.439,10.809,4.319c2.35-0.064,4.61,1.508,6.436,3.243c0.989,0.94,1.894,2.112,3.343,2.239
				c5.015,0.438,7.956,3.676,10.667,7.446c1.368,1.903,2.909,4.353,5.488,0.871c0.907-1.224,2.74-0.917,4.271-0.78
				c5.03,0.447,9.841,1.118,11.098,7.336c0.139,0.687,0.927,1.571,1.591,1.768c3.271,0.967,4.204,3.61,5.034,6.431
				c0.352,1.191,0.926,2.36,2.058,2.975c4.305,2.34,4.111,6.776,5.033,10.677c0.227,0.957,0.026,1.981-1.096,2.367
				c-1.02,0.351-1.9-0.042-2.509-0.894c-0.474-0.664-0.809-1.425-1.256-2.11c-2.837-4.35-9.161-5.291-13.152-1.985
				c-1.152,0.954-2.391,2.238-3.982,1.35c-2.646-1.476-4.891-2.092-7.182,0.717c-1.73,2.122-5.39,2.213-6.015,5.69
				c-0.406,2.261-2.01,3.001-4.261,2.795c-4.383-0.4-4.362,3.551-5.317,6.043c-0.862,2.251,0.774,3.903,3.188,4.257
				c1.991,0.292,2.322,1.578,2.308,3.229c-0.018,1.914-0.032,3.829,0.018,5.742c0.06,2.298-0.443,4.084-3.213,4.267
				c-1.176,0.077-2.114,0.643-2.334,1.918c-0.226,1.303,0.593,2.025,1.609,2.57c3.591,1.927,7.112,4.045,11.498,3.25
				c1.708-0.309,3.38,0.29,4.56,1.431c3.966,3.837,7.832,1.444,11.724,0.011c0.795-0.293,1.366-0.928,1.336-1.872
				c-0.032-0.996-0.774-1.257-1.569-1.603c-4.413-1.928-5.123-4.379-2.07-7.938c1.309-1.525,2.179-3.519,4.163-4.433
				c1.073-0.495,1.372-1.352,0.782-2.349c-0.783-1.323-1.174-2.805,0.306-3.596c2.652-1.421,5.602-1.251,8.338-0.214
				c1.774,0.672,1.252,2.379,1.11,3.922c-0.593,6.448-2.193,13.083-1.246,19.317c1.005,6.614,2.862,13.739,9.823,17.566
				c2.835,1.559,4.594,4.234,5.781,7.201c0.473,1.18,0.752,2.197,2.289,2.493c4.036,0.778,9.84-1.641,11.954-5.321
				c0.897-1.564,2.313-3.272,3.732-2.202c3.235,2.438,7.12,3.339,10.452,5.325c1.664,0.992,2.451,1.414,3.579-0.224
				c1.613-2.34,3.995-3.088,6.492-2.241c3.466,1.175,6.905,2.583,10.108,4.34c6.184,3.391,12.345,5.832,19.226,2.072
				c1.277-0.698,2.604-1.244,3.816-0.227c2.185,1.833,4.464,3.64,6.27,5.817c2.616,3.154,5.079,3.879,8.636,2.075
				c2.379-1.206,5.344-1.685,7.124,0.208c2.205,2.345,4.606,4.544,6.656,7.111c2.464,3.086,4.565,7.011,9.089,7.884
				c0,21.339,0,42.678,0,64.016c-1.95,0.553-3.977,1.196-5.719,2.005c-3.409,1.583-7.549,1.484-10.348,4.516
				c-1.131,1.224-2.794,1.55-4.481,1.765c-3.569,0.453-7.256,1.65-9.421,4.289c-3.317,4.043-7.263,5.513-12.144,5.444
				c-2.492-0.035-4.216,0.838-4.745,3.492c-0.578,2.896-2.537,5.134-3.975,7.579c-1.688,2.871-4.505,2.631-5.721-0.419
				c-0.85-2.133-1.986-2.645-3.648-1.34c-4.161,3.265-9.007,5.554-12.83,9.313c-3.51,3.454-12.7,3.013-16.438,0
				c-3.858-3.11-5.463-7.291-7.106-11.613c-1.558-4.097-4.333-5.232-8.303-3.537c-3.384,1.446-8.686-1.144-9.875-5.053
				c-0.581-1.917-0.875-4.054-3.37-3.809c-2.344,0.231-3.922,1.701-4.203,4.296c-0.379,3.486-2.537,5.646-5.628,6.941
				c-1.917,0.803-3.522,1.885-5.016,3.398c-2.643,2.68-6.127,1.869-7.521-1.548c-0.624-1.528-1.531-2.68-3.276-2.568
				c-1.931,0.124-3.024,1.436-3.047,3.257c-0.067,5.464-4.195,7.811-7.999,10.057c-4.708,2.781-9.377,11.182-8.331,16.399
				c0.175,0.872,0.804,1.713,1.39,2.434c2.163,2.659,4.737,4.903,7.417,7.021c1.432,1.132,3.479,3.317,2.749,4.125
				c-2.734,3.023-2.048,7.906-6.437,10.091c-5.802,2.888-5.577,7.116,0.081,10.463c3.435,2.031,4.031,5.518,1.263,8.501
				c-1.851,1.994-3.916,3.801-5.98,5.583c-1.63,1.407-2.21,3.436-0.72,4.608c3.139,2.471,5.202,6.43,9.739,7.096
				c3.098,0.455,4.563,2.772,5.107,5.669c0.227,1.201,0.059,2.549,1.05,3.444c3.727,3.367,3.862,8.046,4.338,12.453
				c0.741,6.859-5.345,11.509-11.734,9.209c-1.813-0.652-3.946-0.99-4.9,0.638c-2.088,3.566-5.298,5.718-8.456,8.042
				c-0.885,0.651-1.519,1.607-1.581,2.775c-0.214,3.98-0.202,7.836,2.173,11.426c3.672,5.553,3.09,7.932-2.521,11.296
				C249.894,334.901,248.657,336.402,248.987,338.923z M177.917,217.007c4.091,0.953,6.931-1.194,8.387-2.932
				c1.858-2.217,6.109-4.611,3.614-8.583c-2.02-3.213-3.763-6.271-3.458-10.187c0.065-0.834-0.348-1.639-1.185-1.997
				c-0.698-0.297-1.379-0.1-1.739,0.604c-1.006,1.964-2.218,3.542-4.772,2.688c-1.11-0.372-2.034-1.108-1.832-2.384
				c0.377-2.39,2.472-2.618,4.301-3.127c1.177-0.327,1.896-1.053,1.917-2.325c0.015-0.882-0.365-1.558-1.121-2.043
				c-5.05-3.238-10.44-1.712-13.049,3.703c-2.32,4.814-3.864,5.186-7.886,1.938c-0.954-0.771-1.956-1.485-2.961-2.188
				c-2.468-1.724-6.272-1.325-7.938,1.169c-2.417,3.621-4.951,7.291-3.06,12.116c1.444,3.686,3.493,7.318,1.871,11.551
				c-0.143,0.372,0.195,1.215,0.56,1.45c3.235,2.087,3.458,5.592,4.385,8.817c1.397,4.86,5.117,6.146,9.532,3.487
				c2.978-1.793,5.01-4.617,7.607-6.81C173.397,220.009,175.398,217.459,177.917,217.007z M251.334,236.281
				c1.307-0.409,3.643-0.173,3.604-2.104c-0.032-1.616-2.354-1.34-3.699-1.691c-1.393-0.364-2.454,0.447-2.564,1.857
				C248.546,236.009,249.903,236.172,251.334,236.281z"/>
			<path fill-rule="evenodd" clip-rule="evenodd" fill="#656565" d="M155.426-81.281c-1.243,4.167-4.743,6.586-7.535,9.507
				c-2.468,2.583-3.262,4.666,0.361,6.832c1.028,0.615,1.693,1.813,2.69,2.506c2.999,2.085,3.381,3.851-0.069,5.99
				c-2.033,1.261-2.323,2.653,0.405,4.116c5.068,2.718,4.967,2.907,2.86,8.548c-1.192,3.192,1.787,6.466,5.651,6.59
				c4.263,0.137,7.843,2.104,10.042,5.71c2.07,3.392-0.838,10.843-5.078,13.014c-4.373,2.24-7.281,6.406-12.051,8.237
				c-2.88,1.105-3.149,7.632-0.877,10.816c3.49,4.888,6.274,10.131,8.591,15.652c0.416,0.992,1.023,1.936,1.692,2.783
				c3.227,4.079,3.253,5.853-0.269,9.465c-1.478,1.516-1.712,2.492-0.841,4.82c2.067,5.531,3.915,11.468,2.429,17.439
				c-1.118,4.493-4.831,7.57-9.064,8.799c-5.013,1.456-10.51,2.822-14.602-2.651c-0.939-1.256-8.213,0.511-9.056,2.292
				c-1.989,4.205-6.367,6.713-7.755,11.352c-0.333,1.114-1.227,2.097-1.191,3.389c0.089,3.17-1.258,5.543-4.001,7.098
				c-1.974,1.118-2.122,2.028-0.226,3.611c5.78,4.823,8.798,10.942,8.505,18.669c-0.096,2.54,0.631,5.128,1.121,7.668
				c0.975,5.057,0.17,9.242-4.186,12.777c-5.722,4.645-5.514,5.642-0.898,11.653c2.003,2.609,2.914,5.826,3.93,8.92
				c0.583,1.772,1.215,3.229,3.222,3.842c4.544,1.387,5.356,5.413,6.214,9.304c0.281,1.273-0.368,2.215-1.77,2.126
				c-5.051-0.319-10.617,0.787-13.83-4.849c-0.507-0.888-1.45-1.236-2.458-1.251c-2.852-0.042-5.391-1.064-7.578-2.766
				c-3.685-2.865-7.449-2.318-11.016-0.179c-2.532,1.518-5.332,0.958-7.926,1.786c-1.996,0.639-3.579,1.24-3.546,3.718
				c0.019,1.449-0.426,2.823-2.166,2.969c-1.859,0.155-2.048-1.479-2.538-2.71c-0.353-0.887-0.507-2.046-1.477-2.358
				c-7.824-2.516-10.452-9.548-13.93-15.853c-1.753-3.178-7.211-3.758-9.968-0.698c-2.934,3.256-6.072,6.276-9.197,9.329
				c-1.611,1.574-2.075,3.498-0.966,5.616c1.769,3.378,3.136,6.995,6.015,9.697c2.384,2.238,2.513,5.735,1.751,7.983
				c-1.637,4.829,0.987,9.32-0.023,13.949c-0.772,3.539,1.278,6.158,3.329,8.719c0.516,0.644,0.976,1.668,1.819,1.426
				c4.919-1.418,5.844,2.844,6.478,5.48c0.956,3.976,2.728,3.923,5.85,3.128c6.584-1.677,10.283,0.222,11.966,5.779
				c0.565,1.867,1.233,3.878-0.503,5.354c-1.822,1.548-4.087,2.124-6.496,1.459c-5.485-1.513-5.899-1.436-7.981,4.139
				c-0.859,2.301-3.224,2.891-4.326,4.79c-0.405,0.698-1.453,1.236-1.499,1.897c-0.443,6.378-5.33,11.364-4.614,18.443
				c0.626,6.195,3.438,9.483,8.068,12.554c2.155,1.429,2.279,4.566,4.391,6.562c3.625,3.423,7.545,6.445,11.229,9.729
				c3.333,2.969,5.547,7.217,8.72,10.577c1.438,1.524,2.372,2.346,4.678,2.81c3.012,0.605,6.209,1.061,9.166,2.148
				c3.771,1.39,7.129,0.416,9.525-2.527c4.685-5.755,9.493-11.417,15.413-15.98c1.908-1.471,3.944-2.08,6.455-1.135
				c4.017,1.513,6.775-0.063,8.276-4.023c1.076-2.84,1.973-5.631,1.665-8.726c-0.122-1.213-0.067-3.069,1.195-3.207
				c5.693-0.62,3.265-5.683,4.774-8.521c0.743-1.396-1.206-1.747-2.353-2.099c-0.829-0.255-1.571-0.655-1.468-1.665
				c0.076-0.754,0.75-1.031,1.355-1.382c3.943-2.282,4.995-1.936,5.703,2.264c0.299,1.774,1.53,1.644,2.683,1.881
				c4.701,0.967,7.466,3.648,7.739,8.611c0.044,0.8,0.054,1.949,0.545,2.322c5.552,4.22,2.962,9.778,2.052,14.659
				c-1.318,7.07-0.362,9.792,6.118,12.445c2.824,1.156,4.096,3.047,2.783,6.152c-1.315,3.113-1.477,5.674,2.519,7.207
				c2.902,1.112,5.053,7.989,3.354,10.778c-1.697,2.787-1.794,5.628-1.786,8.654c0.009,3.764,0.586,7.555-2.024,10.999
				c-1.099,1.45-0.838,3.869,0.325,5.482c1.806,2.505,1.822,5.031,0.926,7.761c-4.651,0-9.302,0-13.952,0
				c0.903-4.542,1.322-9.802-2.121-12.704c-4.252-3.585-4.784-7.759-4.735-12.317c0.063-5.952-3.546-9.468-7.749-12.353
				c-3.803-2.609-5.733-7.563-10.834-8.506c-0.347-0.064-0.523-1.176-0.738-1.814c-1.719-5.113-4.888-5.923-8.518-2.203
				c-0.751,0.769-1.526,1.713-2.479,2.058c-5.515,1.994-10.08,5.476-14.733,8.893c-4.506,3.308-9.287,4.49-14.274,0.733
				c-1.101-0.83-2.458-1.222-3.871-1.139c-3.618,0.21-6.917-0.97-10.371-1.854c-6.425-1.646-12.738-4.483-19.695-3.19
				c-1.445,0.269-3.093,0.289-4.481-0.128c-5.59-1.682-10.301,0.661-13.624,4.337c-3.361,3.718-5.702,3.994-9.016,0.647
				c-0.419-0.424-1.277-0.646-1.901-0.594c-3.373,0.282-5.788-0.81-7.178-4.111c-0.791-1.879-2.537-1.924-4.198-1.128
				c-1.472,0.706-3.135,1.325-4.219,2.456c-1.788,1.865-3.576,1.916-5.923,1.429c-3.859-0.804-6.121,0.863-7.297,4.662
				c-0.228,0.735-0.791,1.422-1.341,1.994c-2.633,2.735-5.762,5.101-5.971,9.423c-0.05,1.024-1.18,1.408-2.159,1.61
				c0-6.293,0-12.584,0-18.877c4.742,1.816,5.339-2.081,7.014-4.857c2.257-3.741,1.834-7.646,0.326-11.12
				c-1.221-2.813-4.67-2.042-7.34-2.078c0-4.104,0-8.207,0-12.311c4.203-1.679,6.331-5.479,8.771-8.854
				c4.728-6.539,10.845-10.874,18.433-13.67c2.874-1.059,5.464-3.446,5.679-7.51c0.2-3.789-2.333-6.308-3.223-9.517
				c-1.417-5.115-2.908-5.933-8.333-6.684c-4.008-0.554-8.534-1.09-10.555-5.776c-0.577-1.338-1.53-2.385-3.194-1.352
				c-2.401,1.49-5.023,0.832-7.578,0.837c0-9.575,0-19.149,0-28.726c2.591-0.463,3.835-2.074,4.571-4.573
				c0.836-2.841,1.261-5.89,3.262-8.308c1.954-2.36,1.032-4.34-1.074-5.927c-1.977-1.489-4.157-2.621-6.759-2.53
				c0-3.83,0-7.66,0-11.49c1.849-0.016,3.239,0.337,4.334,2.277c1.406,2.487,3.853,4.204,6.459,5.413
				c2.589,1.2,4.081-0.613,5.356-2.478c0.914-1.336,1.224-2.581-0.315-3.936c-1.518-1.335-5.262-2.287-4.142-4.053
				c1.716-2.706,4.155,0.831,6.407,1.155c2.69,0.389,5.323,0.966,5.709-2.953c0.19-1.934,1.676-2.948,3.134-3.461
				c3.144-1.105,3.679-2.846,2.842-5.97c-1.203-4.492-2.022-9.26,2.527-12.627c2.136-1.581,4.371-2.914,6.326-4.838
				c4.13-4.067,4.024-6.967-0.904-10.377c-1.757-1.216-3.829-2.328-3.874-4.897c-0.113-6.464-1.928-8.908-8.135-9.753
				c-3.087-0.421-5.31-1.846-7.215-4.04c-0.729-0.838-1.26-1.832-2.6-1.561c-1.401,0.286-1.486,1.25-1.451,2.479
				c0.049,1.682-0.927,2.58-2.203,1.135c-3.16-3.579-4.792-0.867-6.117,1.497c-1.428,2.548-2.854,4.664-6.14,4.462
				c0-14.226,0-28.452,0-42.677c4.06-0.021,7.79-1.571,11.383-3.073c2.879-1.202,4.896-3.224,5.787-7.104
				c1.161-5.057,4.76-9.436,8.088-13.605c1.819-2.28,2.635-4.693,2.078-7.591c-0.574-2.983-0.181-5.657,2.392-7.767
				c0.777-0.637,1.283-1.77,1.603-2.774c1.642-5.156,5.595-8.368,9.804-11.116c1.868-1.219,3.097-2.099,3.411-4.486
				c0.484-3.688,2.666-5.79,6.726-5.629c4.473,0.177,7.407,2.974,7.733,7.75c0.245,3.579,0.528,6.882,4.276,9.063
				c5.176,3.013,6.63,9.03,9.369,13.818c1.566,2.739,0.058,6.689-2.951,9.136c-0.949,0.771-1.798,1.687-2.595,2.62
				c-1.729,2.025-0.604,6.263,1.977,6.341c3.661,0.112,4.095,2.132,3.863,4.813c-0.403,4.649,2.449,7.771,5.267,10.639
				c1.104,1.123,2.902,3.192,4.793,2.418c2.594-1.062,4.671-0.295,7.076,0.323c2.593,0.666,5.435,1.085,7.97-0.449
				c1.842-1.114,2.948-0.294,4.231,1.015c3.209,3.274,7.474,3.073,10.083-0.608c1.399-1.972,2.937-3.509,5.194-4.386
				c2.475-0.961,4.226-2.532,5.545-5.045c1.144-2.181,2.51-4.666,5.156-5.628c3.258-1.185,6.004-3.247,8.855-5.093
				c7.182-4.651,10.162-12.324,8.26-20.479c-0.243-1.039-0.371-2.25-0.079-3.242c1.983-6.752,0.093-13.257-1.422-19.69
				c-0.653-2.773-0.562-5.777-1.872-8.326c-2.871-5.584-2.085-11.052,0.466-16.326c1.507-3.114,0.992-6.408,1.684-9.575
				c0.464-2.127-2.189-2.508-3.234-3.868c-2.834-3.688-5.912-7.221-4.8-12.431c0.665-3.117-0.827-5.574-3.335-6.84
				c-3.903-1.969-4.855-5.177-5.645-9.055c-0.668-3.277,0.15-5.409,2.922-6.717c2.232-1.053,2.914-2.697,2.894-4.913
				C140.106-81.281,147.766-81.281,155.426-81.281z M102.279,82.843c4.605,0.289,7.984-0.901,10.375-4.137
				c1.498-2.027,1.393-4.093-1.396-4.651c-2.806-0.562-5.937-0.68-8.387,0.942c-2.163,1.433-4.786,3.345-4.45,6.293
				C98.677,83.539,101.271,82.71,102.279,82.843z M22.759,270.209c2.453-0.63,2.741,0.368,5.305,1.014
				c2.578,0.648,5.647-0.631,8.482-1.167c0.069-0.014,0.043-1.266-0.16-1.864c-1.884-5.54-6.137-6.619-10.464-2.709
				C24.597,266.679,23.621,268.087,22.759,270.209z"/>
			<path fill-rule="evenodd" clip-rule="evenodd" fill="#B1B0B1" d="M132.446-81.281c0.02,2.216-0.662,3.859-2.894,4.913
				c-2.772,1.308-3.59,3.44-2.922,6.717c0.79,3.878,1.742,7.085,5.645,9.055c2.508,1.266,4,3.723,3.335,6.84
				c-1.112,5.21,1.966,8.743,4.8,12.431c1.045,1.36,3.699,1.741,3.234,3.868c-0.692,3.167-0.176,6.461-1.684,9.575
				c-2.552,5.274-3.337,10.742-0.466,16.326c1.31,2.548,1.219,5.553,1.872,8.326c1.515,6.433,3.405,12.938,1.422,19.69
				c-0.292,0.992-0.164,2.204,0.079,3.242c1.902,8.155-1.078,15.828-8.26,20.479c-2.851,1.847-5.598,3.909-8.855,5.093
				c-2.646,0.962-4.012,3.447-5.156,5.628c-1.319,2.514-3.071,4.084-5.545,5.045c-2.257,0.877-3.795,2.414-5.194,4.386
				c-2.61,3.681-6.874,3.882-10.083,0.608c-1.283-1.309-2.389-2.128-4.231-1.015c-2.536,1.534-5.377,1.115-7.97,0.449
				c-2.405-0.618-4.482-1.385-7.076-0.323c-1.892,0.774-3.69-1.295-4.793-2.418c-2.818-2.868-5.67-5.99-5.267-10.639
				c0.232-2.68-0.202-4.701-3.863-4.813c-2.581-0.079-3.707-4.316-1.977-6.341c0.796-0.933,1.646-1.849,2.595-2.62
				c3.009-2.447,4.517-6.397,2.951-9.136c-2.739-4.789-4.193-10.805-9.369-13.818c-3.748-2.181-4.031-5.485-4.276-9.063
				c-0.326-4.776-3.26-7.573-7.733-7.75c-4.061-0.161-6.242,1.941-6.726,5.629c-0.313,2.387-1.542,3.267-3.411,4.486
				c-4.209,2.748-8.163,5.96-9.804,11.116c-0.32,1.004-0.826,2.137-1.603,2.774c-2.572,2.109-2.966,4.783-2.392,7.767
				c0.558,2.897-0.258,5.311-2.078,7.591c-3.329,4.17-6.928,8.548-8.088,13.605c-0.891,3.881-2.908,5.902-5.787,7.104
				c-3.593,1.502-7.324,3.052-11.383,3.073c0-22.433,0-44.865,0-67.298c2.751-0.477,6.058,1.028,8.2-1.474
				c3.823-4.463,9.255-5.074,14.137-4.916c8.73,0.282,14.432-3.139,18.093-10.743c0.475-0.986,1.333-1.932,0.979-3.029
				c-1.387-4.299-0.723-8.653-0.702-13.02c0.022-4.454,4.206-8.124,8.438-6.812c1.247,0.386,2.09,0.254,2.848-0.769
				c0.745-1.006,1.604-2.047,0.836-3.333c-1.098-1.84-1.94-3.93-4.51-4.38c-2.796-0.489-3.832-1.6-1.761-4.416
				c1.744-2.372,3.561-5.075,4.082-7.868c0.694-3.718,2.949-3.846,5.587-3.731c5.472,0.239,9.124,5.129,14.456,5.857
				c0.352,0.048,0.574,0.872,0.903,1.299c2.332,3.022,8.423,3.219,9.709-0.185c1.788-4.731,5.769-5.243,9.47-6.436
				c1.914-0.618,2.899-1.281,2.409-3.389c-0.245-1.057-0.295-2.158-0.433-3.239C105.637-81.281,119.042-81.281,132.446-81.281z"/>
			<path fill-rule="evenodd" clip-rule="evenodd" fill="#B1B0B1" d="M422.158,179.705c0,51.979-0.029,103.957,0.079,155.936
				c0.006,2.811-0.548,3.393-3.363,3.366c-17.507-0.165-35.017-0.084-52.524-0.084c0.604-7.86-1.044-14.903-7.443-20.164
				c-3.581-2.943-4.822-6.729-4.438-11.249c0.207-2.44-5.307-7.225-7.542-6.321c-2.034,0.822-3.563,0.56-5.412-0.292
				c-2.037-0.94-4.484-0.993-6.396-0.102c-2.23,1.042-4.19,0.813-6.305,0.244c-1.337-0.359-2.618-0.463-4.023-0.182
				c-4.818,0.966-9.698,2.584-14.31-0.807c-0.664-0.488-1.547-0.28-2.353,0.081c-4.632,2.074-8.161-0.256-11.269-3.206
				c-2.047-1.943-3.604-4.252-6.261-5.697c-2.818-1.534-3.874-7.644-1.729-8.436c7.247-2.678,10.496-10.136,16.987-13.623
				c0.779-0.418,1.781-1.39,1.788-2.112c0.028-3.181,2.767-5.229,3.128-8.258c0.341-2.859,4.938-2.7,4.755-4.955
				c-0.172-2.103-3.425-3.046-4.407-5.819c-1.048-2.96,1.207-6.059-0.313-8.043c-3.755-4.905,1.682-8.654,0.989-13.107
				c-0.201-1.295,1.855-1.109,3.073-0.9c3.146,0.536,5.899,2.08,8.685,3.496c5.022,2.553,11.646-1.139,11.358-6.781
				c-0.131-2.563,0.683-4.185,2.222-5.727c1.487-1.488,2.273-2.778,1.024-4.966c-1.026-1.8-0.444-3.958,1.182-5.197
				c4.012-3.055,8.74-3.052,13.303-1.913c3.975,0.992,5.974,4.168,6.256,8.21c0.145,2.072,1.095,3.103,2.952,3.902
				c4.741,2.039,8.716,0.758,12.164-4.267c2.131-3.105,3.643-7.218,6.134-9.353c5.007-4.289,10.176-8.565,15.657-12.345
				c3.588-2.475,8.343-3.641,9.307-8.972c0.281-1.56,1.783-2.607,3.509-1.829C413.257,182.323,417.742,182.35,422.158,179.705z
				 M335.379,268.468c2.832-0.364,5.679-0.646,8.491-1.127c1.515-0.258,3.012-1.065,3.396-2.621c0.743-3.015,1.5-5.996,0.543-9.245
				c-0.843-2.86-3.567-2.104-5.029-3.359c-3.277-2.814-6.807-0.725-10.079-1.271c-4.845-0.811-5.622,3.009-7.579,5.33
				c-3.197,3.796-1.6,7.925,3.198,8.922c1.146,0.239,2.077,0.639,2.713,1.604C332.085,268.301,333.673,268.468,335.379,268.468z
				 M334.867,237.421c-0.774,2.881,1.402,3.246,3.256,3.49c3.021,0.397,7.667-3.268,7.74-5.913c0.098-3.489-2.222-4.791-5.136-5.225
				C337.246,229.256,335.277,231.928,334.867,237.421z"/>
			<path fill-rule="evenodd" clip-rule="evenodd" fill="#656565" d="M422.158,91.889c-4.523-0.873-6.625-4.797-9.089-7.884
				c-2.05-2.566-4.451-4.766-6.656-7.111c-1.78-1.893-4.745-1.415-7.124-0.208c-3.557,1.804-6.02,1.079-8.636-2.075
				c-1.806-2.178-4.085-3.984-6.27-5.817c-1.212-1.017-2.539-0.471-3.816,0.227c-6.881,3.76-13.042,1.319-19.226-2.072
				c-3.203-1.757-6.643-3.165-10.108-4.34c-2.497-0.847-4.879-0.099-6.492,2.241c-1.128,1.638-1.915,1.216-3.579,0.224
				c-3.332-1.986-7.217-2.887-10.452-5.325c-1.419-1.07-2.835,0.638-3.732,2.202c-2.114,3.681-7.918,6.1-11.954,5.321
				c-1.537-0.296-1.816-1.313-2.289-2.493c-1.188-2.966-2.946-5.642-5.781-7.201c-6.961-3.827-8.818-10.952-9.823-17.566
				c-0.947-6.234,0.653-12.869,1.246-19.317c0.142-1.543,0.664-3.25-1.11-3.922c-2.736-1.037-5.686-1.207-8.338,0.214
				c-1.479,0.792-1.089,2.273-0.306,3.596c0.59,0.997,0.291,1.854-0.782,2.349c-1.984,0.915-2.854,2.908-4.163,4.433
				c-3.053,3.559-2.343,6.011,2.07,7.938c0.795,0.346,1.537,0.607,1.569,1.603c0.03,0.943-0.541,1.579-1.336,1.872
				c-3.892,1.434-7.758,3.827-11.724-0.011c-1.18-1.141-2.852-1.74-4.56-1.431c-4.386,0.795-7.907-1.323-11.498-3.25
				c-1.017-0.545-1.835-1.268-1.609-2.57c0.22-1.276,1.158-1.842,2.334-1.918c2.77-0.182,3.272-1.969,3.213-4.267
				c-0.05-1.913-0.035-3.828-0.018-5.742c0.015-1.65-0.316-2.937-2.308-3.229c-2.413-0.354-4.05-2.006-3.188-4.257
				c0.955-2.492,0.935-6.444,5.317-6.043c2.251,0.206,3.854-0.534,4.261-2.795c0.625-3.477,4.284-3.568,6.015-5.69
				c2.291-2.81,4.535-2.193,7.182-0.717c1.592,0.888,2.83-0.396,3.982-1.35c3.991-3.306,10.315-2.365,13.152,1.985
				c0.447,0.686,0.782,1.446,1.256,2.11c0.608,0.852,1.489,1.245,2.509,0.894c1.122-0.386,1.322-1.411,1.096-2.367
				c-0.922-3.901-0.729-8.337-5.033-10.677c-1.132-0.615-1.706-1.784-2.058-2.975c-0.83-2.82-1.763-5.464-5.034-6.431
				c-0.664-0.197-1.452-1.081-1.591-1.768c-1.257-6.218-6.067-6.889-11.098-7.336c-1.531-0.136-3.364-0.443-4.271,0.78
				c-2.579,3.482-4.12,1.032-5.488-0.871c-2.711-3.77-5.652-7.008-10.667-7.446c-1.449-0.127-2.354-1.299-3.343-2.239
				c-1.825-1.734-4.086-3.307-6.436-3.243c-4.376,0.12-7.655-2.043-10.809-4.319c-5.126-3.701-11.108-5.461-16.942-6.878
				c-4.13-1.003-8.936,0.695-12.575,3.499c-5.037,3.881-11.415,5.912-15.406,11.231c-0.443,0.589-12.773-1.059-13.053-1.706
				c-0.425-0.985-0.666-2.055-0.925-3.104c-1.081-4.364-2.73-8.419-4.729-12.513c-2.616-5.355-3.88-11.416-5.337-17.27
				c-0.524-2.104,1.331-4.07,1.958-6.146c9.849,0,19.697,0,29.546,0c-0.375,0.704-0.569,1.7-1.155,2.063
				c-3.301,2.045-3.181,5.234-2.835,8.383c0.39,3.55,3.723,5.03,6.545,2.794c1.984-1.573,4.245-2.627,6.457-3.443
				c3.439-1.27,7.721-1.98,10.588,0.247c2.411,1.874,4.388,3.338,7.45,3.17c1.146-0.063,2.112,0.619,2.805,1.5
				c2.596,3.306,6.02,4.342,10.109,4.173c3.18-0.132,5.872,0.961,8.576,3.038c3.685,2.83,7.748,5.226,13.023,2.472
				c3.874-2.022,5.913-0.707,7.563,3.237c1.262,3.017,2.904,5.642,6.843,5.29c0.997-0.089,1.917,0.316,2.524,1.129
				c2.79,3.736,5.598,2.658,8.733,0.343c3.603-2.66,8.199-2.016,11.292,1.202c1.226,1.274,2.376,2.686,3.808,3.679
				c1.723,1.196,1.89,2.447,1.052,4.184c-1.913,3.969,0.898,7.325,1.74,10.865c0.388,1.63,2.751,2.925,4.797,1.737
				c1.984-1.153,2.954-0.062,4.201,1.087c2.658,2.447,6.372,4.2,9.398,4.128c6.382-0.152,12.863-1.5,18.75-4.343
				c1.799-0.87,3.266-1.229,4.957-0.297c1.12,0.617,2.288,0.794,3.535,0.861c1.424,0.077,3.232-0.576,4.003,1.207
				c0.786,1.814,0.138,3.483-1.27,4.822c-1.307,1.244-2.055,2.625-0.959,4.344c1.711,2.683,2.554,5.618,3.064,8.74
				c0.331,2.023,1.248,3.844,3.206,5.01c3.51,2.091,4.135,7.52,9.119,7.952c0.447,3.408,3.95,4.385,5.448,6.764
				c2.382,3.785,6.688,7.389,3.41,12.855c-0.549,0.916-0.401,2.204,0.274,3.144c2.535,3.525,4.97,7.143,7.765,10.455
				c2.034,2.41,4.248,4.565,5.012,7.8c0.386,1.632,1.413,2.58,3.359,1.788c3.916-1.596,6.654,0.922,7.998,3.689
				c2.586,5.322,7.977,5.95,12.247,7.173c3.092,0.886,7.052,0.795,10.62,1.205C422.158,72.739,422.158,82.313,422.158,91.889z
				 M280.847,21.016c-0.169-0.369-0.281-1.177-0.739-1.515c-1.889-1.392-4.084-2.757-6.39-1.79
				c-2.707,1.136-5.853,2.457-6.225,5.882c-0.229,2.099,1.092,4.276,3.621,3.93c2.361-0.324,4.662-1.37,6.884-2.342
				C279.563,24.496,280.38,23,280.847,21.016z"/>
			<path fill-rule="evenodd" clip-rule="evenodd" fill="#656565" d="M422.158,179.705c-4.416,2.645-8.901,2.618-13.537,0.529
				c-1.726-0.778-3.228,0.27-3.509,1.829c-0.964,5.331-5.719,6.497-9.307,8.972c-5.481,3.779-10.65,8.056-15.657,12.345
				c-2.491,2.135-4.003,6.247-6.134,9.353c-3.448,5.024-7.423,6.306-12.164,4.267c-1.857-0.8-2.808-1.83-2.952-3.902
				c-0.282-4.042-2.281-7.218-6.256-8.21c-4.563-1.139-9.291-1.142-13.303,1.913c-1.626,1.239-2.208,3.397-1.182,5.197
				c1.249,2.188,0.463,3.478-1.024,4.966c-1.539,1.542-2.353,3.163-2.222,5.727c0.288,5.643-6.336,9.334-11.358,6.781
				c-2.785-1.416-5.538-2.96-8.685-3.496c-1.218-0.209-3.274-0.395-3.073,0.9c0.692,4.453-4.744,8.202-0.989,13.107
				c1.521,1.984-0.734,5.083,0.313,8.043c0.982,2.773,4.235,3.717,4.407,5.819c0.184,2.255-4.414,2.096-4.755,4.955
				c-0.361,3.029-3.1,5.077-3.128,8.258c-0.007,0.723-1.009,1.694-1.788,2.112c-6.491,3.487-9.74,10.945-16.987,13.623
				c-2.145,0.792-1.089,6.901,1.729,8.436c2.657,1.445,4.214,3.754,6.261,5.697c3.107,2.95,6.637,5.28,11.269,3.206
				c0.806-0.361,1.688-0.569,2.353-0.081c4.611,3.391,9.491,1.772,14.31,0.807c1.405-0.281,2.687-0.178,4.023,0.182
				c2.114,0.569,4.074,0.798,6.305-0.244c1.912-0.892,4.359-0.839,6.396,0.102c1.849,0.852,3.378,1.114,5.412,0.292
				c2.235-0.903,7.749,3.881,7.542,6.321c-0.385,4.521,0.856,8.306,4.438,11.249c6.399,5.261,8.048,12.304,7.443,20.164
				c-7.934,0-15.867,0-23.801,0c1.396-3.597,0.556-6.506-2.214-9.256c-3.554-3.528-3.316-4.263,0.493-7.858
				c1.611-1.522,2.362-3.447,0.744-5.464c-1.157-1.44-2.442-2.496-4.556-1.365c-4.922,2.634-10.658,0.117-15.713,2.316
				c-0.541,0.235-1.514-0.476-2.27-0.789c-6.042-2.508-11.043,0.673-16.173,3.015c-0.52,0.237-1.228,1.269-1.084,1.569
				c2.234,4.712-3.215,10.206,1.541,14.678c0.854,0.805-0.156,2.085-0.164,3.154c-18.056,0-36.111,0-54.167,0
				c-0.33-2.521,0.906-4.021,3.004-5.28c5.61-3.364,6.192-5.743,2.521-11.296c-2.375-3.59-2.387-7.445-2.173-11.426
				c0.063-1.168,0.696-2.124,1.581-2.775c3.158-2.324,6.368-4.476,8.456-8.042c0.954-1.628,3.087-1.29,4.9-0.638
				c6.39,2.3,12.476-2.35,11.734-9.209c-0.476-4.407-0.611-9.086-4.338-12.453c-0.991-0.896-0.823-2.243-1.05-3.444
				c-0.544-2.896-2.01-5.214-5.107-5.669c-4.537-0.666-6.601-4.625-9.739-7.096c-1.49-1.173-0.91-3.201,0.72-4.608
				c2.064-1.782,4.13-3.589,5.98-5.583c2.769-2.983,2.172-6.47-1.263-8.501c-5.658-3.347-5.883-7.575-0.081-10.463
				c4.389-2.185,3.702-7.067,6.437-10.091c0.73-0.808-1.317-2.993-2.749-4.125c-2.68-2.118-5.254-4.362-7.417-7.021
				c-0.586-0.721-1.215-1.562-1.39-2.434c-1.046-5.218,3.623-13.618,8.331-16.399c3.804-2.246,7.932-4.593,7.999-10.057
				c0.022-1.821,1.116-3.133,3.047-3.257c1.745-0.111,2.652,1.04,3.276,2.568c1.395,3.417,4.879,4.228,7.521,1.548
				c1.493-1.514,3.099-2.596,5.016-3.398c3.091-1.296,5.249-3.455,5.628-6.941c0.281-2.595,1.859-4.064,4.203-4.296
				c2.495-0.245,2.789,1.892,3.37,3.809c1.189,3.909,6.491,6.499,9.875,5.053c3.97-1.695,6.745-0.56,8.303,3.537
				c1.644,4.322,3.248,8.503,7.106,11.613c3.737,3.013,12.928,3.454,16.438,0c3.823-3.759,8.669-6.048,12.83-9.313
				c1.662-1.305,2.799-0.793,3.648,1.34c1.216,3.05,4.033,3.29,5.721,0.419c1.438-2.445,3.396-4.684,3.975-7.579
				c0.529-2.654,2.253-3.527,4.745-3.492c4.881,0.068,8.826-1.401,12.144-5.444c2.165-2.639,5.852-3.836,9.421-4.289
				c1.688-0.215,3.351-0.541,4.481-1.765c2.799-3.031,6.938-2.933,10.348-4.516c1.742-0.809,3.769-1.452,5.719-2.005
				C422.158,163.838,422.158,171.771,422.158,179.705z"/>
			<path fill-rule="evenodd" clip-rule="evenodd" fill="#B1B0B1" d="M422.158,63.164c-3.568-0.41-7.528-0.319-10.62-1.205
				c-4.271-1.223-9.661-1.852-12.247-7.173c-1.344-2.767-4.082-5.285-7.998-3.689c-1.946,0.792-2.974-0.156-3.359-1.788
				c-0.764-3.235-2.978-5.39-5.012-7.8c-2.795-3.312-5.229-6.93-7.765-10.455c-0.676-0.94-0.823-2.228-0.274-3.144
				c3.277-5.467-1.028-9.07-3.41-12.855c-1.498-2.379-5.001-3.355-5.448-6.764c-4.984-0.432-5.609-5.861-9.119-7.952
				c-1.958-1.166-2.875-2.987-3.206-5.01c-0.511-3.122-1.354-6.057-3.064-8.74c-1.096-1.718-0.348-3.1,0.959-4.344
				c1.407-1.339,2.056-3.008,1.27-4.822c-0.771-1.782-2.579-1.129-4.003-1.207c-1.247-0.067-2.415-0.244-3.535-0.861
				c-1.691-0.932-3.158-0.573-4.957,0.297c-5.887,2.843-12.368,4.191-18.75,4.343c-3.026,0.072-6.74-1.681-9.398-4.128
				c-1.247-1.149-2.217-2.24-4.201-1.087c-2.046,1.188-4.409-0.106-4.797-1.737c-0.842-3.541-3.653-6.896-1.74-10.865
				c0.838-1.737,0.671-2.988-1.052-4.184c-1.432-0.994-2.582-2.405-3.808-3.679c-3.093-3.218-7.689-3.862-11.292-1.202
				c-3.136,2.315-5.943,3.393-8.733-0.343c-0.607-0.813-1.527-1.218-2.524-1.129c-3.938,0.352-5.581-2.273-6.843-5.29
				c-1.649-3.944-3.688-5.259-7.563-3.237c-5.275,2.754-9.339,0.358-13.023-2.472c-2.704-2.076-5.396-3.169-8.576-3.038
				c-4.09,0.169-7.514-0.867-10.109-4.173c-0.692-0.881-1.658-1.563-2.805-1.5c-3.063,0.168-5.039-1.296-7.45-3.17
				c-2.867-2.228-7.149-1.517-10.588-0.247c-2.212,0.816-4.472,1.871-6.457,3.443c-2.822,2.236-6.155,0.756-6.545-2.794
				c-0.346-3.149-0.466-6.338,2.835-8.383c0.585-0.363,0.78-1.359,1.155-2.063c53.347,0,106.692,0,160.039,0
				c-0.592,3.048,0.528,5.773,2.197,8.071c1.607,2.212,3.075,4.92,2.658,7.102c-0.79,4.123,1.59,6.929,2.575,10.319
				c0.777,2.675,2.352,4.182,4.599,5.81c3.403,2.466,7.237,5.129,8.304,9.529c0.93,3.831,2.137,7.568,3.089,11.374
				c0.646,2.578,2.098,3.213,4.421,3.925c3.146,0.965,6.591,0.915,9.347,3.596c5.689,5.538,12.691,6.837,19.257,2.391
				c2.451-1.661,5.042-3.117,7.569-4.667C422.158,5.167,422.158,34.166,422.158,63.164z"/>
			<path fill-rule="evenodd" clip-rule="evenodd" fill="#B1B0B1" d="M-0.509,315.123c0.979-0.202,2.109-0.586,2.159-1.61
				c0.208-4.322,3.338-6.688,5.971-9.423c0.551-0.572,1.113-1.259,1.341-1.994c1.176-3.799,3.438-5.466,7.297-4.662
				c2.347,0.487,4.135,0.437,5.923-1.429c1.084-1.131,2.747-1.75,4.219-2.456c1.662-0.796,3.407-0.751,4.198,1.128
				c1.39,3.302,3.805,4.394,7.178,4.111c0.624-0.053,1.482,0.17,1.901,0.594c3.314,3.347,5.655,3.07,9.016-0.647
				c3.323-3.676,8.034-6.019,13.624-4.337c1.388,0.417,3.036,0.396,4.481,0.128c6.958-1.293,13.271,1.545,19.695,3.19
				c3.453,0.885,6.753,2.064,10.371,1.854c1.413-0.083,2.77,0.309,3.871,1.139c4.987,3.757,9.768,2.574,14.274-0.733
				c4.653-3.417,9.218-6.898,14.733-8.893c0.952-0.345,1.727-1.289,2.479-2.058c3.63-3.72,6.798-2.91,8.518,2.203
				c0.215,0.639,0.391,1.75,0.738,1.814c5.102,0.943,7.032,5.896,10.834,8.506c4.203,2.885,7.813,6.4,7.749,12.353
				c-0.049,4.559,0.483,8.732,4.735,12.317c3.443,2.902,3.024,8.162,2.121,12.704c-54.588,0-109.176-0.031-163.764,0.083
				c-3.127,0.007-4.102-0.758-3.711-3.797c0.259-2.013,0.049-4.087,0.049-6.135c2.235-0.44,4.999-4.988,4.862-8.002
				c-0.161-3.549-2.907-2.387-4.862-2.667C-0.509,317.312-0.509,316.217-0.509,315.123z"/>
			<path fill-rule="evenodd" clip-rule="evenodd" fill="#656565" d="M92.231-81.281c0.138,1.081,0.188,2.183,0.433,3.239
				c0.49,2.108-0.496,2.771-2.409,3.389c-3.701,1.193-7.682,1.705-9.47,6.436c-1.286,3.403-7.377,3.207-9.709,0.185
				c-0.33-0.427-0.551-1.25-0.903-1.299c-5.332-0.728-8.984-5.619-14.456-5.857c-2.638-0.115-4.893,0.013-5.587,3.731
				c-0.521,2.792-2.338,5.496-4.082,7.868c-2.071,2.815-1.035,3.926,1.761,4.416c2.57,0.45,3.412,2.54,4.51,4.38
				c0.768,1.286-0.091,2.327-0.836,3.333c-0.758,1.023-1.601,1.155-2.848,0.769c-4.231-1.313-8.416,2.357-8.438,6.812
				c-0.021,4.367-0.685,8.72,0.702,13.02c0.354,1.097-0.504,2.043-0.979,3.029c-3.662,7.604-9.363,11.025-18.093,10.743
				c-4.882-0.158-10.314,0.452-14.137,4.916c-2.142,2.501-5.449,0.997-8.2,1.474c0-10.122,0-20.244,0-30.366
				c0.814,0.06,1.644,0.045,2.442,0.193c5.198,0.956,6.156,0.364,7.099-4.93c0.516-2.895,0.027-6.052,2.78-8.221
				c0.691-0.545,0.521-1.539,0.108-2.291c-2.375-4.333-0.662-8.681,2.039-11.338c4.521-4.448,5.544-8.465,1.946-13.628
				C41.348-81.281,66.79-81.281,92.231-81.281z"/>
			<path fill-rule="evenodd" clip-rule="evenodd" fill="#656565" d="M422.158-23.832c-2.527,1.55-5.118,3.006-7.569,4.667
				c-6.565,4.447-13.567,3.147-19.257-2.391c-2.756-2.682-6.201-2.631-9.347-3.596c-2.323-0.712-3.775-1.348-4.421-3.925
				c-0.952-3.806-2.159-7.543-3.089-11.374c-1.066-4.399-4.9-7.063-8.304-9.529c-2.247-1.628-3.821-3.135-4.599-5.81
				c-0.985-3.39-3.365-6.196-2.575-10.319c0.417-2.182-1.051-4.889-2.658-7.102c-1.669-2.298-2.789-5.023-2.197-8.071
				c5.745,0,11.489,0,17.234,0c0.104,0.531,0.049,1.409,0.337,1.541c4.433,2.039,6.006,5.243,4.956,10.109
				c-0.306,1.417,1.031,3.171,2.82,3.632c1.79,0.461,2.094-1.195,2.899-2.267c2.055-2.733,6.43-1.901,7.764,1.38
				c1.38,3.391,2.251,3.512,4.583,0.665c1.87-2.283,3.241-5.079,6.605-5.744c0.982-0.194,1.087-1.446,1.198-2.424
				c0.262-2.3,0.562-4.595,0.845-6.892c2.463,0,4.925,0,7.387,0c-0.373,5.287,3.396,6.847,7.387,8.207c0,5.198,0,10.396,0,15.594
				c-0.268-0.048-0.557-0.048-0.8-0.152c-2.293-0.979-4.276-0.682-5.73,1.471c-1.159,1.715-1.351,3.684-0.3,5.397
				c1.304,2.127,3.379,0.99,5.201,0.729c0.534-0.076,1.085-0.042,1.629-0.059C422.158-41.34,422.158-32.585,422.158-23.832z"/>
			<path fill-rule="evenodd" clip-rule="evenodd" fill="#B1B0B1" d="M-0.509,99.275c3.286,0.202,4.712-1.914,6.14-4.462
				c1.324-2.364,2.957-5.076,6.117-1.497c1.276,1.445,2.252,0.547,2.203-1.135c-0.036-1.228,0.049-2.193,1.451-2.479
				c1.34-0.271,1.872,0.722,2.6,1.561c1.905,2.194,4.127,3.619,7.215,4.04c6.207,0.845,8.021,3.289,8.135,9.753
				c0.045,2.57,2.117,3.681,3.874,4.897c4.928,3.411,5.035,6.311,0.904,10.377c-1.955,1.924-4.189,3.258-6.326,4.838
				c-4.549,3.367-3.73,8.135-2.527,12.627c0.837,3.124,0.302,4.864-2.842,5.97c-1.458,0.513-2.944,1.527-3.134,3.461
				c-0.386,3.919-3.02,3.342-5.709,2.953c-2.252-0.324-4.691-3.861-6.407-1.155c-1.12,1.766,2.624,2.718,4.142,4.053
				c1.54,1.354,1.229,2.6,0.315,3.936c-1.275,1.864-2.767,3.678-5.356,2.478c-2.607-1.209-5.054-2.926-6.459-5.413
				c-1.095-1.94-2.485-2.293-4.334-2.277C-0.509,134.293-0.509,116.784-0.509,99.275z"/>
			<path fill-rule="evenodd" clip-rule="evenodd" fill="#292929" d="M-0.509,213.354c2.555-0.005,5.177,0.653,7.578-0.837
				c1.664-1.033,2.617,0.014,3.194,1.352c2.021,4.687,6.547,5.223,10.555,5.776c5.426,0.751,6.916,1.568,8.333,6.684
				c0.889,3.209,3.422,5.728,3.223,9.517c-0.215,4.063-2.805,6.451-5.679,7.51c-7.588,2.796-13.705,7.131-18.433,13.67
				c-2.44,3.376-4.568,7.176-8.771,8.854C-0.509,248.372-0.509,230.862-0.509,213.354z"/>
			<path fill-rule="evenodd" clip-rule="evenodd" fill="#292929" d="M303.154,338.923c0.008-1.069,1.019-2.35,0.164-3.154
				c-4.756-4.472,0.693-9.966-1.541-14.678c-0.144-0.301,0.564-1.332,1.084-1.569c5.13-2.342,10.131-5.522,16.173-3.015
				c0.756,0.313,1.729,1.024,2.27,0.789c5.055-2.199,10.791,0.317,15.713-2.316c2.113-1.131,3.398-0.075,4.556,1.365
				c1.618,2.017,0.867,3.941-0.744,5.464c-3.81,3.596-4.047,4.33-0.493,7.858c2.77,2.75,3.609,5.659,2.214,9.256
				C329.417,338.923,316.286,338.923,303.154,338.923z"/>
			<path fill-rule="evenodd" clip-rule="evenodd" fill="#292929" d="M15.905-81.281c3.598,5.163,2.575,9.181-1.946,13.628
				c-2.701,2.657-4.414,7.005-2.039,11.338c0.413,0.752,0.583,1.746-0.108,2.291c-2.752,2.168-2.264,5.326-2.78,8.221
				c-0.943,5.294-1.901,5.886-7.099,4.93c-0.799-0.147-1.628-0.133-2.442-0.193c0-12.358,0.058-24.716-0.051-37.073
				c-0.021-2.343,0.241-3.411,3.027-3.223C6.928-81.061,11.424-81.281,15.905-81.281z"/>
			<path fill-rule="evenodd" clip-rule="evenodd" fill="#292929" d="M407.385-81.281c-0.283,2.297-0.583,4.592-0.845,6.892
				c-0.111,0.978-0.216,2.23-1.198,2.424c-3.364,0.666-4.735,3.461-6.605,5.744c-2.332,2.848-3.203,2.726-4.583-0.665
				c-1.334-3.281-5.709-4.113-7.764-1.38c-0.806,1.071-1.109,2.728-2.899,2.267c-1.789-0.461-3.126-2.215-2.82-3.632
				c1.05-4.866-0.523-8.07-4.956-10.109c-0.288-0.132-0.232-1.01-0.337-1.541C386.047-81.281,396.716-81.281,407.385-81.281z"/>
			<path fill-rule="evenodd" clip-rule="evenodd" fill="#B1B0B1" d="M-0.509,278.19c2.67,0.036,6.119-0.734,7.34,2.078
				c1.508,3.474,1.931,7.379-0.326,11.12c-1.675,2.776-2.272,6.674-7.014,4.857C-0.509,290.228-0.509,284.209-0.509,278.19z"/>
			<path fill-rule="evenodd" clip-rule="evenodd" fill="#B1B0B1" d="M-0.509,163.291c2.602-0.091,4.782,1.041,6.759,2.53
				c2.106,1.587,3.028,3.566,1.074,5.927c-2.001,2.418-2.425,5.467-3.262,8.308c-0.736,2.499-1.98,4.11-4.571,4.573
				C-0.509,177.517-0.509,170.404-0.509,163.291z"/>
			<path fill-rule="evenodd" clip-rule="evenodd" fill="#292929" d="M422.158-50.094c-0.544,0.017-1.095-0.017-1.629,0.059
				c-1.822,0.261-3.897,1.398-5.201-0.729c-1.051-1.713-0.859-3.682,0.3-5.397c1.454-2.153,3.438-2.45,5.73-1.471
				c0.243,0.104,0.532,0.104,0.8,0.152C422.158-55.019,422.158-52.557,422.158-50.094z"/>
			<path fill-rule="evenodd" clip-rule="evenodd" fill="#292929" d="M422.158-73.074c-3.991-1.36-7.76-2.92-7.387-8.207
				c2.462,0,6.618-0.78,7.05,0.155C422.86-78.869,422.158-75.81,422.158-73.074z"/>
			<path fill-rule="evenodd" clip-rule="evenodd" fill="#656565" d="M-0.509,318.405c1.955,0.28,4.702-0.882,4.862,2.667
				c0.137,3.014-2.627,7.562-4.862,8.002C-0.509,325.519-0.509,321.962-0.509,318.405z"/>
			<path fill-rule="evenodd" clip-rule="evenodd" fill="#656565" d="M177.917,217.007c-2.519,0.452-4.521,3.002-6.826,4.949
				c-2.597,2.192-4.629,5.017-7.607,6.81c-4.415,2.659-8.135,1.373-9.532-3.487c-0.927-3.226-1.15-6.73-4.385-8.817
				c-0.365-0.235-0.703-1.078-0.56-1.45c1.622-4.232-0.427-7.865-1.871-11.551c-1.892-4.825,0.642-8.495,3.06-12.116
				c1.666-2.494,5.47-2.893,7.938-1.169c1.006,0.702,2.007,1.417,2.961,2.188c4.022,3.248,5.566,2.877,7.886-1.938
				c2.609-5.415,7.999-6.941,13.049-3.703c0.756,0.485,1.135,1.161,1.121,2.043c-0.021,1.272-0.74,1.998-1.917,2.325
				c-1.829,0.509-3.923,0.737-4.301,3.127c-0.202,1.275,0.722,2.012,1.832,2.384c2.554,0.854,3.766-0.724,4.772-2.688
				c0.36-0.704,1.041-0.901,1.739-0.604c0.837,0.358,1.25,1.163,1.185,1.997c-0.304,3.915,1.439,6.974,3.458,10.187
				c2.496,3.972-1.756,6.366-3.614,8.583C184.849,215.813,182.009,217.96,177.917,217.007z"/>
			<path fill-rule="evenodd" clip-rule="evenodd" fill="#656565" d="M251.334,236.281c-1.431-0.109-2.788-0.272-2.659-1.938
				c0.11-1.41,1.172-2.222,2.564-1.857c1.345,0.352,3.667,0.075,3.699,1.691C254.977,236.108,252.641,235.872,251.334,236.281z"/>
			<path fill-rule="evenodd" clip-rule="evenodd" fill="#292929" d="M102.279,82.843c-1.008-0.133-3.603,0.696-3.858-1.552
				c-0.336-2.949,2.288-4.861,4.45-6.293c2.45-1.622,5.581-1.504,8.387-0.942c2.789,0.558,2.894,2.624,1.396,4.651
				C110.264,81.942,106.885,83.132,102.279,82.843z"/>
			<path fill-rule="evenodd" clip-rule="evenodd" fill="#B1B0B1" d="M22.759,270.209c0.861-2.122,1.838-3.53,3.163-4.727
				c4.328-3.91,8.58-2.831,10.464,2.709c0.204,0.599,0.229,1.851,0.16,1.864c-2.835,0.536-5.904,1.815-8.482,1.167
				C25.5,270.577,25.212,269.579,22.759,270.209z"/>
			<path fill-rule="evenodd" clip-rule="evenodd" fill="#656565" d="M335.379,268.468c-1.706,0-3.294-0.167-4.347-1.768
				c-0.636-0.966-1.566-1.365-2.713-1.604c-4.798-0.997-6.396-5.126-3.198-8.922c1.957-2.321,2.734-6.141,7.579-5.33
				c3.272,0.547,6.802-1.543,10.079,1.271c1.462,1.256,4.187,0.499,5.029,3.359c0.957,3.249,0.2,6.23-0.543,9.245
				c-0.384,1.556-1.881,2.363-3.396,2.621C341.058,267.821,338.211,268.104,335.379,268.468z"/>
			<path fill-rule="evenodd" clip-rule="evenodd" fill="#656565" d="M334.87,237.42c0.407-5.492,2.376-8.164,5.857-7.646
				c2.914,0.434,5.233,1.735,5.136,5.225c-0.073,2.646-4.72,6.311-7.74,5.913C336.27,240.667,334.093,240.302,334.87,237.42z"/>
			<path fill-rule="evenodd" clip-rule="evenodd" fill="#292929" d="M280.847,21.016c-0.467,1.984-1.283,3.48-2.849,4.166
				c-2.222,0.972-4.522,2.018-6.884,2.342c-2.529,0.346-3.85-1.831-3.621-3.93c0.372-3.425,3.518-4.747,6.225-5.882
				c2.306-0.967,4.501,0.398,6.39,1.79C280.565,19.839,280.678,20.647,280.847,21.016z"/>
		</g>
	</g>
</g>
<g>
	<path fill="#39B54A" stroke="#E6E7E8" stroke-width="0.75" stroke-miterlimit="10" d="M155.185,112.105v6.216h6.024v-6.216h3.648
		v16.177h-3.648v-6.769h-6.024v6.769h-3.672v-16.177H155.185z"/>
	<path fill="#39B54A" stroke="#E6E7E8" stroke-width="0.75" stroke-miterlimit="10" d="M170.665,123.578
		c0.12,1.512,1.608,2.232,3.312,2.232c1.249,0,2.256-0.168,3.24-0.48l0.48,2.472c-1.2,0.48-2.665,0.72-4.249,0.72
		c-3.984,0-6.265-2.304-6.265-5.977c0-2.977,1.848-6.265,5.929-6.265c3.792,0,5.232,2.952,5.232,5.856
		c0,0.624-0.072,1.176-0.12,1.44H170.665z M174.961,121.082c0-0.888-0.384-2.376-2.064-2.376c-1.536,0-2.16,1.392-2.256,2.376
		H174.961z"/>
	<path fill="#39B54A" stroke="#E6E7E8" stroke-width="0.75" stroke-miterlimit="10" d="M184.297,113.281
		c0,1.008-0.768,1.824-1.968,1.824c-1.152,0-1.92-0.816-1.896-1.824c-0.024-1.056,0.744-1.848,1.92-1.848
		C183.529,111.433,184.273,112.225,184.297,113.281z M180.529,128.282v-11.737h3.648v11.737H180.529z"/>
	<path fill="#39B54A" stroke="#E6E7E8" stroke-width="0.75" stroke-miterlimit="10" d="M198.313,116.545
		c-0.048,0.744-0.096,1.728-0.096,3.48v6.553c0,2.256-0.456,4.104-1.776,5.28c-1.296,1.104-3.048,1.44-4.776,1.44
		c-1.536,0-3.168-0.313-4.224-0.912l0.72-2.76c0.744,0.432,2.041,0.888,3.409,0.888c1.728,0,3.048-0.937,3.048-3.097v-0.768h-0.048
		c-0.696,0.984-1.824,1.536-3.168,1.536c-2.904,0-4.969-2.352-4.969-5.736c0-3.768,2.448-6.168,5.329-6.168
		c1.608,0,2.616,0.696,3.216,1.656h0.048l0.12-1.392H198.313z M194.569,121.322c0-0.24-0.024-0.48-0.072-0.672
		c-0.264-0.96-0.96-1.608-1.968-1.608c-1.32,0-2.4,1.2-2.4,3.336c0,1.752,0.864,3.12,2.4,3.12c0.936,0,1.68-0.624,1.92-1.488
		c0.096-0.264,0.12-0.648,0.12-0.96V121.322z"/>
	<path fill="#39B54A" stroke="#E6E7E8" stroke-width="0.75" stroke-miterlimit="10" d="M201.145,111.241h3.648v6.697h0.048
		c0.384-0.504,0.864-0.888,1.44-1.2c0.528-0.288,1.224-0.456,1.896-0.456c2.328,0,4.104,1.608,4.104,5.136v6.865h-3.648v-6.457
		c0-1.536-0.528-2.592-1.896-2.592c-0.96,0-1.56,0.624-1.824,1.272c-0.096,0.24-0.12,0.552-0.12,0.816v6.96h-3.648V111.241z"/>
	<path fill="#39B54A" stroke="#E6E7E8" stroke-width="0.75" stroke-miterlimit="10" d="M219.145,113.185v3.36h2.617v2.688h-2.617
		v4.249c0,1.416,0.336,2.064,1.44,2.064c0.456,0,0.816-0.048,1.08-0.096l0.024,2.76c-0.48,0.192-1.344,0.312-2.377,0.312
		c-1.176,0-2.16-0.408-2.736-1.008c-0.672-0.696-1.008-1.824-1.008-3.48v-4.8h-1.56v-2.688h1.56v-2.544L219.145,113.185z"/>
	<path fill="#39B54A" stroke="#E6E7E8" stroke-width="0.75" stroke-miterlimit="10" d="M223.873,120.29
		c0-1.464-0.049-2.712-0.097-3.744h3.072l0.168,1.584h0.071c0.505-0.744,1.537-1.848,3.553-1.848c1.512,0,2.713,0.768,3.217,1.992
		h0.048c0.433-0.6,0.96-1.08,1.513-1.416c0.647-0.384,1.367-0.576,2.231-0.576c2.257,0,3.96,1.584,3.96,5.088v6.913h-3.552v-6.385
		c0-1.704-0.552-2.688-1.728-2.688c-0.841,0-1.441,0.576-1.681,1.272c-0.097,0.264-0.144,0.648-0.144,0.936v6.865h-3.553v-6.577
		c0-1.488-0.528-2.496-1.68-2.496c-0.937,0-1.488,0.72-1.705,1.32c-0.119,0.288-0.144,0.624-0.144,0.912v6.841h-3.552V120.29z"/>
	<path fill="#39B54A" stroke="#E6E7E8" stroke-width="0.75" stroke-miterlimit="10" d="M251.185,128.282l-0.216-1.176h-0.072
		c-0.768,0.936-1.969,1.44-3.36,1.44c-2.376,0-3.792-1.729-3.792-3.601c0-3.048,2.736-4.512,6.889-4.488v-0.168
		c0-0.624-0.336-1.512-2.137-1.512c-1.199,0-2.473,0.408-3.24,0.888l-0.672-2.352c0.816-0.456,2.424-1.032,4.561-1.032
		c3.912,0,5.16,2.304,5.16,5.064v4.08c0,1.128,0.049,2.208,0.168,2.856H251.185z M250.752,122.738
		c-1.92-0.024-3.408,0.432-3.408,1.848c0,0.936,0.625,1.392,1.44,1.392c0.912,0,1.656-0.6,1.896-1.344
		c0.048-0.192,0.071-0.408,0.071-0.624V122.738z"/>
	<path fill="#39B54A" stroke="#E6E7E8" stroke-width="0.75" stroke-miterlimit="10" d="M257.184,120.481
		c0-1.536-0.048-2.856-0.096-3.936h3.168l0.168,1.632h0.049c0.863-1.248,2.207-1.896,3.912-1.896c2.568,0,4.872,2.232,4.872,5.977
		c0,4.272-2.712,6.289-5.329,6.289c-1.416,0-2.52-0.576-3.047-1.344h-0.049v5.833h-3.648V120.481z M260.832,123.242
		c0,0.288,0.023,0.552,0.072,0.768c0.24,0.984,1.08,1.728,2.137,1.728c1.584,0,2.52-1.32,2.52-3.312c0-1.872-0.84-3.289-2.473-3.289
		c-1.031,0-1.943,0.768-2.184,1.848c-0.049,0.192-0.072,0.432-0.072,0.648V123.242z"/>
</g>
<g>
	<path fill="#4B82C3" stroke="#E6E7E8" stroke-width="0.75" stroke-miterlimit="10" d="M170.642,156.338
		c-1.128,0.385-3.264,0.912-5.4,0.912c-2.952,0-5.088-0.744-6.577-2.184c-1.488-1.393-2.304-3.505-2.28-5.881
		c0.024-5.377,3.937-8.449,9.241-8.449c2.088,0,3.696,0.408,4.488,0.793l-0.768,2.928c-0.888-0.385-1.992-0.696-3.769-0.696
		c-3.048,0-5.353,1.729-5.353,5.232c0,3.337,2.088,5.305,5.089,5.305c0.84,0,1.512-0.097,1.8-0.24v-3.384h-2.496v-2.856h6.024
		V156.338z"/>
	<path fill="#4B82C3" stroke="#E6E7E8" stroke-width="0.75" stroke-miterlimit="10" d="M176.329,152.377
		c0.12,1.513,1.608,2.232,3.312,2.232c1.248,0,2.256-0.168,3.24-0.479l0.48,2.472c-1.2,0.48-2.665,0.721-4.249,0.721
		c-3.984,0-6.265-2.305-6.265-5.977c0-2.977,1.848-6.265,5.929-6.265c3.792,0,5.232,2.952,5.232,5.856
		c0,0.624-0.072,1.176-0.12,1.439H176.329z M180.625,149.881c0-0.888-0.384-2.375-2.064-2.375c-1.536,0-2.16,1.392-2.256,2.375
		H180.625z"/>
	<path fill="#4B82C3" stroke="#E6E7E8" stroke-width="0.75" stroke-miterlimit="10" d="M186.192,149.09
		c0-1.465-0.048-2.713-0.096-3.744h3.168l0.168,1.607h0.072c0.48-0.744,1.68-1.872,3.625-1.872c2.4,0,4.2,1.584,4.2,5.04v6.961
		h-3.648v-6.504c0-1.513-0.528-2.545-1.848-2.545c-1.008,0-1.608,0.696-1.848,1.368c-0.096,0.216-0.144,0.576-0.144,0.912v6.769
		h-3.648V149.09z"/>
	<path fill="#4B82C3" stroke="#E6E7E8" stroke-width="0.75" stroke-miterlimit="10" d="M203.064,152.377
		c0.12,1.513,1.608,2.232,3.312,2.232c1.249,0,2.256-0.168,3.24-0.479l0.48,2.472c-1.2,0.48-2.665,0.721-4.249,0.721
		c-3.984,0-6.265-2.305-6.265-5.977c0-2.977,1.848-6.265,5.929-6.265c3.792,0,5.232,2.952,5.232,5.856
		c0,0.624-0.072,1.176-0.12,1.439H203.064z M207.361,149.881c0-0.888-0.384-2.375-2.064-2.375c-1.536,0-2.16,1.392-2.256,2.375
		H207.361z"/>
	<path fill="#4B82C3" stroke="#E6E7E8" stroke-width="0.75" stroke-miterlimit="10" d="M212.928,149.209
		c0-1.728-0.048-2.855-0.096-3.863h3.145l0.119,2.16h0.097c0.601-1.705,2.04-2.425,3.168-2.425c0.337,0,0.505,0,0.769,0.048v3.433
		c-0.264-0.048-0.576-0.097-0.984-0.097c-1.344,0-2.256,0.721-2.496,1.849c-0.049,0.24-0.072,0.528-0.072,0.815v5.953h-3.648
		V149.209z"/>
	<path fill="#4B82C3" stroke="#E6E7E8" stroke-width="0.75" stroke-miterlimit="10" d="M228.457,157.082l-0.216-1.176h-0.072
		c-0.769,0.936-1.968,1.439-3.36,1.439c-2.376,0-3.792-1.729-3.792-3.6c0-3.049,2.735-4.513,6.888-4.488v-0.168
		c0-0.625-0.336-1.513-2.136-1.513c-1.2,0-2.472,0.408-3.24,0.888l-0.672-2.352c0.815-0.456,2.425-1.032,4.561-1.032
		c3.912,0,5.16,2.304,5.16,5.064v4.08c0,1.128,0.048,2.208,0.168,2.856H228.457z M228.025,151.537
		c-1.92-0.023-3.408,0.433-3.408,1.849c0,0.937,0.623,1.392,1.439,1.392c0.912,0,1.656-0.6,1.896-1.344
		c0.048-0.191,0.072-0.408,0.072-0.624V151.537z"/>
	<path fill="#4B82C3" stroke="#E6E7E8" stroke-width="0.75" stroke-miterlimit="10" d="M238.345,141.984v3.361h2.616v2.688h-2.616
		v4.248c0,1.416,0.336,2.064,1.44,2.064c0.455,0,0.816-0.048,1.08-0.096l0.023,2.76c-0.479,0.192-1.344,0.313-2.376,0.313
		c-1.176,0-2.16-0.408-2.736-1.008c-0.672-0.697-1.008-1.824-1.008-3.48v-4.801h-1.56v-2.688h1.56v-2.545L238.345,141.984z"/>
	<path fill="#4B82C3" stroke="#E6E7E8" stroke-width="0.75" stroke-miterlimit="10" d="M254.545,151.082
		c0,4.296-3.048,6.264-6.191,6.264c-3.434,0-6.073-2.256-6.073-6.049c0-3.791,2.496-6.216,6.265-6.216
		C252.145,145.081,254.545,147.553,254.545,151.082z M246.049,151.201c0,2.017,0.84,3.529,2.4,3.529
		c1.416,0,2.328-1.417,2.328-3.529c0-1.752-0.672-3.527-2.328-3.527C246.697,147.674,246.049,149.473,246.049,151.201z"/>
	<path fill="#4B82C3" stroke="#E6E7E8" stroke-width="0.75" stroke-miterlimit="10" d="M256.801,149.209
		c0-1.728-0.049-2.855-0.097-3.863h3.144l0.121,2.16h0.096c0.6-1.705,2.04-2.425,3.168-2.425c0.336,0,0.504,0,0.768,0.048v3.433
		c-0.264-0.048-0.575-0.097-0.983-0.097c-1.345,0-2.257,0.721-2.496,1.849c-0.048,0.24-0.072,0.528-0.072,0.815v5.953h-3.647
		V149.209z"/>
</g>
</svg>
