<svg xmlns="http://www.w3.org/2000/svg" viewBox="0 0 420 256">
<rect x="-1.589" y="-1.372" fill="#EF4545" width="423.81" height="258.874"/>
<g>
	<path fill="#424142" d="M117.64,95.31v28.688c0,4.34,3.517,7.855,7.854,7.855c4.337,0,7.854-3.518,7.854-7.855V95.31h6.507v28.54
		c0,7.933-6.43,14.36-14.361,14.36c-7.932,0-14.362-6.428-14.362-14.36V95.31H117.64L117.64,95.31z"/>
	<path fill="#424142" d="M165.6,138.21v-10.209c0-4.34-3.516-7.854-7.854-7.854c-4.338,0-7.854,3.517-7.854,7.854v10.209h-6.506
		v-10.063c0-7.932,6.429-14.361,14.361-14.361c7.931,0,14.361,6.43,14.361,14.361v10.063H165.6z"/>
	<path fill="#FFFFFF" d="M184.939,138.21h-6.294v-42.9h6.294v29.012c0-7.933,6.429-14.362,14.361-14.362l-0.147,6.508
		c-4.338,0-7.854,3.516-7.854,7.854s3.517,7.855,7.854,7.855l0.147,6.506c-7.931,0-14.361-6.43-14.361-14.361V138.21L184.939,138.21
		z"/>
	<g>
		<path fill="#FFFFFF" d="M260.645,128.001c0-4.34-3.516-7.854-7.854-7.854s-7.855,3.517-7.855,7.854l-6.506,0.146
			c0-7.932,6.43-14.361,14.361-14.361s14.361,6.43,14.361,14.361L260.645,128.001z"/>
		<path fill="#FFFFFF" d="M267.152,127.307c0,7.933-6.428,14.362-14.359,14.362c-7.934,0-14.361-6.428-14.361-14.362l6.508,0.147
			c0,4.34,3.516,7.854,7.854,7.854c4.336,0,7.855-3.517,7.855-7.854L267.152,127.307z"/>
	</g>
	<path fill="#FFFFFF" d="M289.781,120.294h-5.172c-4.338,0-7.854,3.516-7.854,7.854s3.516,7.854,7.854,7.854h5.172v6.507h-5.025
		c-7.93,0-14.357-6.431-14.357-14.361s6.43-14.36,14.357-14.36h5.025V120.294z"/>
	<path fill="#FFFFFF" d="M301.15,138.21h-6.295v-42.9h6.295v29.01c0-7.931,6.43-14.36,14.361-14.36l-0.148,6.508
		c-4.336,0-7.854,3.515-7.854,7.854c0,4.338,3.518,7.855,7.854,7.855l0.148,6.506c-7.93,0-14.361-6.43-14.361-14.361V138.21z"/>
	<path fill="#FFFFFF" d="M227.754,137.728v-10.209c0-4.34-3.516-7.854-7.854-7.854c-4.339,0-7.855,3.517-7.855,7.854v10.209h-6.507
		v-10.063c0-7.932,6.43-14.361,14.36-14.361c7.932,0,14.361,6.43,14.361,14.361v10.063H227.754z"/>
	<g>
		<path fill="#404142" d="M238.42,157.39c0,4.597-6.24,10.324-11.25,10.324h-14.539c-5.011,0-11.251-5.728-11.251-10.324v-16.33
			c0-4.597-0.475-4.162,4.536-4.162h27.969c5.01,0,4.535-0.435,4.535,4.162V157.39z"/>
		<circle fill="#232224" cx="219.898" cy="148.701" r="3.664"/>
		<polygon fill="#232224" points="223.432,159.563 216.365,159.563 218.459,150.664 221.338,150.664 		"/>
	</g>
</g>
</svg>
