<svg xmlns="http://www.w3.org/2000/svg" xmlns:xlink="http://www.w3.org/1999/xlink" viewBox="0 0 420 256">
<pattern  width="60.801" height="60.799" patternUnits="userSpaceOnUse" id="Checkers" viewBox="0.001 -60.799 60.801 60.799" overflow="visible">
	<g>
		<polygon fill="none" points="0.001,-60.799 60.802,-60.799 60.802,0 0.001,0 		"/>
		<g>
			<polygon fill="#FFFFFF" points="76.002,-45.599 60.801,-45.599 60.801,-60.798 76.002,-60.798 			"/>
			<polygon fill="#FFFFFF" points="76.002,-15.2 60.801,-15.2 60.801,-30.399 76.002,-30.399 			"/>
		</g>
		<g>
			<polygon fill="#C3C3C2" points="15.2,0 15.2,-15.2 0.001,-15.2 0.001,0 			"/>
			<polygon fill="#C3C3C2" points="45.601,0 45.601,-15.2 30.401,-15.2 30.401,0 			"/>
			<polygon fill="#C3C3C2" points="15.2,-15.2 15.2,-30.399 30.401,-30.399 30.401,-15.2 			"/>
			<polygon fill="#C3C3C2" points="45.601,-15.2 45.601,-30.399 60.802,-30.399 60.802,-15.2 			"/>
			<polygon fill="#C3C3C2" points="15.2,-30.399 15.2,-45.599 0.001,-45.599 0.001,-30.399 			"/>
			<polygon fill="#C3C3C2" points="45.601,-30.399 45.601,-45.599 30.401,-45.599 30.401,-30.399 			"/>
			<polygon fill="#C3C3C2" points="15.2,-45.599 15.2,-60.799 30.401,-60.799 30.401,-45.599 			"/>
			<polygon fill="#C3C3C2" points="45.601,-45.599 45.601,-60.799 60.802,-60.799 60.802,-45.599 			"/>
			<polygon fill="#FFFFFF" points="30.401,-30.399 15.2,-30.399 15.2,-45.599 30.401,-45.599 			"/>
			<polygon fill="#FFFFFF" points="15.201,-45.599 0,-45.599 0,-60.798 15.201,-60.798 			"/>
			<polygon fill="#FFFFFF" points="45.602,-45.599 30.4,-45.599 30.4,-60.798 45.602,-60.798 			"/>
			<polygon fill="#FFFFFF" points="60.802,-30.399 45.601,-30.399 45.601,-45.599 60.802,-45.599 			"/>
			<polygon fill="#FFFFFF" points="15.201,-15.2 0,-15.2 0,-30.399 15.201,-30.399 			"/>
			<polygon fill="#FFFFFF" points="30.801,-0.001 15.6,-0.001 15.6,-15.2 30.801,-15.2 			"/>
			<polygon fill="#FFFFFF" points="45.602,-15.2 30.4,-15.2 30.4,-30.399 45.602,-30.399 			"/>
			<polygon fill="#FFFFFF" points="60.802,-0.001 45.601,-0.001 45.601,-15.2 60.802,-15.2 			"/>
		</g>
	</g>
</pattern>
<rect x="-2.121" y="-2.304" fill="#C3C3C2" width="424.242" height="260.607"/>
<g>
	<pattern  id="SVGID_1_" xlink:href="#Checkers" patternTransform="matrix(1 0 0 1 -19.1484 -19.0269)">
	</pattern>
	<polygon fill="url(#SVGID_1_)" stroke="#000000" stroke-width="3" stroke-linejoin="round" stroke-miterlimit="10" points="
		270.173,88.096 311.628,88.096 311.628,134.746 270.173,134.746 270.173,157.092 149.826,157.092 149.826,134.746 108.371,134.746 
		108.371,88.096 149.826,88.096 149.826,64.884 270.173,64.884 	"/>
	<rect x="109.898" y="89.622" fill="#ABD591" width="38.4" height="43.599"/>
	<rect x="272.228" y="89.622" fill="#ABD591" width="38.4" height="43.599"/>
	
		<rect x="122.986" y="105.143" fill="#ED1F24" stroke="#000000" stroke-width="3" stroke-miterlimit="10" width="13.42" height="13.42"/>
	
		<circle fill="#3953A4" stroke="#000000" stroke-width="3" stroke-linejoin="round" stroke-miterlimit="10" cx="209.999" cy="144.18" r="6.419"/>
	
		<circle fill="#3953A4" stroke="#000000" stroke-width="3" stroke-linejoin="round" stroke-miterlimit="10" cx="167.517" cy="79.266" r="6.419"/>
	
		<circle fill="#3953A4" stroke="#000000" stroke-width="3" stroke-linejoin="round" stroke-miterlimit="10" cx="250.635" cy="79.266" r="6.419"/>
</g>
<g>
	<path fill="#1D1B1C" d="M137.376,191.299h-3.006v-5.418h-5.511v5.418h-2.997v-13.305h2.997v5.307h5.511v-5.307h3.006V191.299z"/>
	<path fill="#1D1B1C" d="M148.036,191.299h-2.774v-1.363h-0.037c-0.637,1.063-1.581,1.596-2.83,1.596
		c-0.922,0-1.647-0.262-2.175-0.785c-0.529-0.521-0.793-1.219-0.793-2.092c0-1.844,1.091-2.906,3.275-3.191l2.579-0.344
		c0-1.039-0.563-1.559-1.688-1.559c-1.132,0-2.208,0.338-3.229,1.012v-2.207c0.408-0.211,0.966-0.396,1.675-0.557
		c0.708-0.162,1.353-0.242,1.934-0.242c2.709,0,4.063,1.352,4.063,4.055V191.299z M145.281,187.439v-0.641l-1.726,0.223
		c-0.953,0.123-1.429,0.553-1.429,1.289c0,0.334,0.116,0.607,0.348,0.822c0.232,0.213,0.546,0.32,0.942,0.32
		c0.55,0,0.999-0.191,1.345-0.572C145.107,188.502,145.281,188.02,145.281,187.439z"/>
	<path fill="#1D1B1C" d="M156.553,184.443c-0.353-0.193-0.764-0.289-1.234-0.289c-0.637,0-1.135,0.234-1.494,0.701
		c-0.359,0.467-0.538,1.102-0.538,1.906v4.537h-2.932v-9.5h2.932v1.762h0.037c0.464-1.285,1.299-1.93,2.505-1.93
		c0.309,0,0.55,0.037,0.724,0.111V184.443z"/>
	<path fill="#1D1B1C" d="M166.962,191.299h-2.932v-1.309h-0.037c-0.668,1.027-1.648,1.541-2.941,1.541
		c-1.188,0-2.143-0.42-2.867-1.258s-1.085-2.008-1.085-3.512c0-1.57,0.399-2.83,1.197-3.775c0.798-0.947,1.843-1.42,3.136-1.42
		c1.225,0,2.078,0.439,2.561,1.318h0.037v-5.65h2.932V191.299z M164.086,186.678v-0.713c0-0.619-0.18-1.133-0.538-1.541
		c-0.359-0.408-0.826-0.611-1.401-0.611c-0.649,0-1.157,0.254-1.521,0.764c-0.365,0.512-0.547,1.211-0.547,2.102
		c0,0.836,0.176,1.479,0.529,1.93s0.841,0.678,1.466,0.678c0.594,0,1.078-0.238,1.452-0.715
		C163.899,188.094,164.086,187.463,164.086,186.678z"/>
	<path fill="#1D1B1C" d="M177.965,187.383h-6.197c0.099,1.379,0.968,2.07,2.607,2.07c1.045,0,1.963-0.248,2.755-0.742v2.115
		c-0.878,0.469-2.02,0.705-3.423,0.705c-1.534,0-2.725-0.426-3.572-1.277c-0.848-0.85-1.271-2.035-1.271-3.557
		c0-1.578,0.458-2.826,1.373-3.748c0.915-0.922,2.041-1.383,3.377-1.383c1.385,0,2.457,0.412,3.215,1.234
		c0.757,0.822,1.136,1.939,1.136,3.35V187.383z M175.247,185.584c0-1.361-0.551-2.041-1.651-2.041c-0.47,0-0.877,0.195-1.22,0.584
		c-0.344,0.391-0.552,0.875-0.626,1.457H175.247z"/>
	<path fill="#1D1B1C" d="M179.087,191.049v-2.375c0.482,0.289,0.963,0.506,1.442,0.648c0.479,0.143,0.933,0.213,1.359,0.213
		c0.52,0,0.929-0.07,1.229-0.213c0.3-0.143,0.45-0.359,0.45-0.648c0-0.186-0.068-0.342-0.204-0.465
		c-0.136-0.123-0.311-0.232-0.524-0.324c-0.214-0.094-0.447-0.176-0.701-0.25c-0.254-0.074-0.498-0.158-0.733-0.252
		c-0.377-0.143-0.71-0.295-0.997-0.459c-0.288-0.164-0.529-0.354-0.724-0.57c-0.195-0.217-0.344-0.467-0.445-0.752
		c-0.103-0.283-0.153-0.621-0.153-1.01c0-0.533,0.116-0.99,0.348-1.373c0.232-0.385,0.542-0.697,0.928-0.943
		c0.387-0.244,0.829-0.422,1.327-0.537c0.498-0.115,1.016-0.172,1.554-0.172c0.42,0,0.847,0.033,1.28,0.098
		c0.433,0.064,0.859,0.158,1.28,0.283v2.264c-0.371-0.217-0.769-0.379-1.192-0.488c-0.423-0.107-0.839-0.162-1.248-0.162
		c-0.192,0-0.373,0.018-0.542,0.051c-0.17,0.035-0.32,0.084-0.45,0.148c-0.13,0.066-0.232,0.148-0.306,0.252
		c-0.074,0.102-0.111,0.217-0.111,0.348c0,0.172,0.056,0.32,0.167,0.445c0.111,0.123,0.256,0.23,0.436,0.32
		c0.179,0.09,0.379,0.17,0.599,0.24c0.219,0.072,0.437,0.145,0.654,0.219c0.39,0.135,0.742,0.283,1.058,0.445
		c0.315,0.16,0.586,0.35,0.812,0.566c0.226,0.215,0.398,0.469,0.52,0.76c0.12,0.291,0.181,0.637,0.181,1.039
		c0,0.563-0.122,1.043-0.366,1.443c-0.245,0.398-0.569,0.723-0.975,0.973c-0.405,0.252-0.872,0.434-1.4,0.549
		c-0.529,0.113-1.078,0.172-1.647,0.172C180.946,191.531,179.978,191.369,179.087,191.049z"/>
	<path fill="#1D1B1C" d="M193.811,191.188c-0.433,0.229-1.085,0.344-1.958,0.344c-2.066,0-3.099-1.074-3.099-3.221v-4.35h-1.54
		v-2.162h1.54v-2.051l2.922-0.834v2.885h2.134v2.162h-2.134v3.84c0,0.99,0.393,1.484,1.178,1.484c0.309,0,0.627-0.09,0.956-0.27
		V191.188z"/>
	<path fill="#1D1B1C" d="M211.911,190.408c-1.299,0.748-2.914,1.123-4.843,1.123c-2.14,0-3.827-0.594-5.061-1.777
		c-1.233-1.184-1.851-2.816-1.851-4.895c0-2.09,0.674-3.793,2.022-5.111c1.348-1.316,3.142-1.977,5.381-1.977
		c1.41,0,2.653,0.195,3.729,0.586v2.811c-1.027-0.594-2.282-0.891-3.767-0.891c-1.243,0-2.256,0.402-3.038,1.211
		c-0.783,0.807-1.174,1.885-1.174,3.232c0,1.367,0.351,2.424,1.053,3.174c0.702,0.748,1.65,1.121,2.844,1.121
		c0.717,0,1.286-0.102,1.707-0.305v-2.598h-2.663v-2.395h5.66V190.408z"/>
	<path fill="#1D1B1C" d="M222.116,191.299h-2.773v-1.363h-0.037c-0.639,1.063-1.582,1.596-2.83,1.596
		c-0.922,0-1.646-0.262-2.176-0.785c-0.529-0.521-0.793-1.219-0.793-2.092c0-1.844,1.092-2.906,3.275-3.191l2.578-0.344
		c0-1.039-0.563-1.559-1.688-1.559c-1.133,0-2.209,0.338-3.229,1.012v-2.207c0.408-0.211,0.965-0.396,1.674-0.557
		c0.709-0.162,1.354-0.242,1.934-0.242c2.709,0,4.064,1.352,4.064,4.055V191.299z M219.36,187.439v-0.641l-1.725,0.223
		c-0.953,0.123-1.43,0.553-1.43,1.289c0,0.334,0.117,0.607,0.348,0.822c0.232,0.213,0.547,0.32,0.941,0.32
		c0.551,0,1-0.191,1.346-0.572C219.187,188.502,219.36,188.02,219.36,187.439z"/>
	<path fill="#1D1B1C" d="M239.519,191.299h-2.922v-5.418c0-1.379-0.506-2.068-1.521-2.068c-0.482,0-0.875,0.207-1.178,0.621
		s-0.455,0.93-0.455,1.549v5.316h-2.932v-5.475c0-1.342-0.498-2.012-1.494-2.012c-0.5,0-0.9,0.197-1.201,0.594
		c-0.299,0.395-0.449,0.934-0.449,1.613v5.279h-2.932v-9.5h2.932v1.484h0.037c0.303-0.508,0.729-0.92,1.275-1.238
		s1.146-0.479,1.795-0.479c1.342,0,2.262,0.59,2.756,1.771c0.723-1.182,1.787-1.771,3.191-1.771c2.066,0,3.098,1.273,3.098,3.822
		V191.299z"/>
	<path fill="#1D1B1C" d="M250.374,187.383h-6.197c0.1,1.379,0.969,2.07,2.607,2.07c1.045,0,1.963-0.248,2.754-0.742v2.115
		c-0.877,0.469-2.018,0.705-3.422,0.705c-1.535,0-2.725-0.426-3.572-1.277c-0.848-0.85-1.271-2.035-1.271-3.557
		c0-1.578,0.459-2.826,1.373-3.748c0.916-0.922,2.041-1.383,3.377-1.383c1.387,0,2.457,0.412,3.215,1.234s1.137,1.939,1.137,3.35
		V187.383z M247.655,185.584c0-1.361-0.551-2.041-1.65-2.041c-0.471,0-0.877,0.195-1.221,0.584
		c-0.344,0.391-0.553,0.875-0.627,1.457H247.655z"/>
	<path fill="#1D1B1C" d="M265.626,191.299h-7.979v-13.305h7.672v2.441h-4.676v2.959h4.352v2.43h-4.352v3.043h4.982V191.299z"/>
	<path fill="#1D1B1C" d="M276.519,181.799l-3.535,9.5h-3.34l-3.367-9.5h3.135l1.652,5.854c0.186,0.662,0.293,1.225,0.324,1.689
		h0.037c0.043-0.439,0.158-0.984,0.344-1.633l1.688-5.91H276.519z"/>
	<path fill="#1D1B1C" d="M286.194,187.383h-6.197c0.1,1.379,0.969,2.07,2.607,2.07c1.045,0,1.963-0.248,2.754-0.742v2.115
		c-0.877,0.469-2.018,0.705-3.422,0.705c-1.535,0-2.725-0.426-3.572-1.277c-0.848-0.85-1.271-2.035-1.271-3.557
		c0-1.578,0.459-2.826,1.373-3.748c0.916-0.922,2.041-1.383,3.377-1.383c1.387,0,2.457,0.412,3.215,1.234s1.137,1.939,1.137,3.35
		V187.383z M283.476,185.584c0-1.361-0.551-2.041-1.65-2.041c-0.471,0-0.877,0.195-1.221,0.584
		c-0.344,0.391-0.553,0.875-0.627,1.457H283.476z"/>
	<path fill="#1D1B1C" d="M294.136,184.443c-0.354-0.193-0.764-0.289-1.234-0.289c-0.637,0-1.135,0.234-1.494,0.701
		c-0.357,0.467-0.537,1.102-0.537,1.906v4.537h-2.932v-9.5h2.932v1.762h0.037c0.463-1.285,1.299-1.93,2.504-1.93
		c0.311,0,0.551,0.037,0.725,0.111V184.443z"/>
</g>
</svg>
