<svg xmlns="http://www.w3.org/2000/svg" viewBox="0 0 128 128">
<g>
	<path fill="#00599C" d="M118.975,32.767L118.975,32.767c-0.616-1.234-1.541-2.159-2.466-2.773L67.236,1.22
		c-0.82-0.515-1.953-0.72-3.185-0.72c-1.233,0-2.363,0.309-3.186,0.72L11.543,29.888c-1.747,1.028-2.979,3.596-2.979,5.547v57.234
		c0,1.063,0.013,2.409,0.72,3.493l0,0c0.513,0.822,1.233,1.539,1.953,1.953l49.527,28.668c0.821,0.514,1.953,0.717,3.185,0.717
		c1.231,0,2.364-0.308,3.186-0.717l49.322-28.668c1.747-1.028,2.979-3.597,2.979-5.549V35.333
		C119.438,34.511,119.356,33.607,118.975,32.767z M82.65,66.262v-4.519h5.344v-5.446h4.521v5.446h5.445v4.519h-5.445v5.346h-4.521
		v-5.346H82.65z M85.938,51.671c-0.013-0.024-0.024-0.046-0.038-0.07c-4.325-7.669-12.526-12.775-21.849-12.775
		c-13.872,0-25.175,11.304-25.175,25.177c0,4.703,1.299,9.109,3.558,12.88c0.047,0.078,0.094,0.158,0.142,0.236
		c4.432,7.225,12.405,12.058,21.476,12.058c9.352,0,17.571-5.139,21.886-12.741l13.256,7.808
		c-6.987,12.128-20.141,20.345-35.141,20.345c-14.774,0-27.718-7.912-34.815-19.726c-0.045-0.074-0.091-0.151-0.135-0.226
		c-3.581-6.047-5.638-13.104-5.638-20.635c0-22.4,18.188-40.589,40.588-40.589c15.059,0,28.174,8.271,35.178,20.437
		c0.025,0.037,0.045,0.076,0.067,0.117L85.938,51.671z M116.97,66.262h-5.446v5.346h-4.52v-5.346h-5.346v-4.519h5.346v-5.446h4.52
		v5.446h5.446V66.262L116.97,66.262z"/>
	<path fill="#00599C" d="M99.295,43.965l-13.357,7.706c-0.014-0.024-0.025-0.046-0.038-0.07l13.329-7.753
		C99.253,43.888,99.275,43.926,99.295,43.965z"/>
	<polygon fill="#00599C" points="97.961,61.741 97.961,66.262 92.516,66.262 92.516,71.605 87.994,71.605 87.994,66.262 
		82.65,66.262 82.65,61.741 87.994,61.741 87.994,56.295 92.516,56.295 92.516,61.741 	"/>
	<path fill="#00599C" d="M99.295,43.965l-13.357,7.706c-0.014-0.024-0.025-0.046-0.038-0.07l13.329-7.753
		C99.253,43.888,99.275,43.926,99.295,43.965z"/>
	<polygon fill="#00599C" points="116.97,61.741 116.97,66.262 111.524,66.262 111.524,71.605 107.005,71.605 107.005,66.262 
		101.66,66.262 101.66,61.741 107.005,61.741 107.005,56.295 111.524,56.295 111.524,61.741 	"/>
	<path fill="#FFFFFF" d="M85.938,76.434l13.257,7.809c-6.987,12.128-20.142,20.345-35.142,20.345
		c-14.774,0-27.717-7.912-34.815-19.726c-0.046-0.074-0.091-0.151-0.135-0.227C25.523,78.588,23.466,71.531,23.466,64
		c0-22.4,18.188-40.59,40.588-40.59c15.058,0,28.175,8.272,35.18,20.438l-13.331,7.753c-4.324-7.669-12.526-12.775-21.849-12.775
		c-13.872,0-25.175,11.304-25.175,25.177c0,4.703,1.299,9.109,3.558,12.88c0.047,0.078,0.094,0.158,0.142,0.236
		c4.432,7.225,12.405,12.058,21.476,12.058C73.402,89.177,81.623,84.039,85.938,76.434z"/>
	<path fill="#00599C" d="M99.295,43.965l-13.357,7.706c-0.014-0.024-0.025-0.046-0.038-0.07l13.329-7.753
		C99.253,43.888,99.275,43.926,99.295,43.965z"/>
	<g>
		<path fill="#FFFFFF" d="M92.516,61.741v-5.446h-4.521v5.446H82.65v4.519h5.344v5.346h4.521V66.26h5.445v-4.519H92.516
			L92.516,61.741z M111.524,61.741v-5.446h-4.52v5.446h-5.345v4.519h5.345v5.346h4.52V66.26h5.446v-4.519H111.524L111.524,61.741z"
			/>
	</g>
</g>
</svg>
