<svg xmlns="http://www.w3.org/2000/svg" viewBox="0 0 128 128">
<g>
	<path fill="#813787" d="M118.977,32.766L118.977,32.766c-0.615-1.23-1.548-2.153-2.47-2.778L67.235,1.214
		C66.411,0.708,65.28,0.5,64.05,0.5c-1.23,0-2.362,0.308-3.185,0.714L11.543,29.889c-1.746,1.022-2.977,3.592-2.977,5.546v57.229
		c0,1.062,0,2.411,0.714,3.493c0.516,0.823,1.24,1.547,1.955,1.954l49.53,28.675c0.824,0.506,1.955,0.714,3.185,0.714
		c1.23,0,2.361-0.308,3.185-0.714l49.322-28.675c1.746-1.022,2.977-3.592,2.977-5.546V35.336
		C119.434,34.502,119.354,33.609,118.977,32.766z M64.05,104.591c-14.774,0-27.712-7.908-34.806-19.725
		c-0.05-0.08-0.099-0.159-0.139-0.238C25.523,78.585,23.469,71.53,23.469,64c0-22.403,18.187-40.591,40.581-40.591
		c15.061,0,28.168,8.275,35.173,20.439c0.02,0.039,0.05,0.079,0.07,0.119l-13.355,7.699c-0.01-0.02-0.029-0.05-0.039-0.069
		c-4.326-7.659-12.521-12.77-21.848-12.77c-13.871,0-25.172,11.301-25.172,25.172c0,4.703,1.3,9.108,3.562,12.878
		c0.04,0.08,0.089,0.159,0.139,0.238c4.435,7.224,12.402,12.056,21.471,12.056c9.356,0,17.572-5.14,21.887-12.739l13.256,7.809
		C92.208,96.365,79.051,104.591,64.05,104.591z"/>
	<path fill="#813787" d="M99.291,43.971L85.937,51.67c-0.01-0.02-0.03-0.05-0.04-0.07l13.326-7.748
		C99.242,43.892,99.271,43.931,99.291,43.971z"/>
	<path fill="#813787" d="M99.291,43.971L85.937,51.67c-0.01-0.02-0.03-0.05-0.04-0.07l13.326-7.748
		C99.242,43.892,99.271,43.931,99.291,43.971z"/>
	<path fill="#FFFFFF" d="M85.937,76.436l13.256,7.81c-6.985,12.124-20.142,20.349-35.144,20.349
		c-14.773,0-27.711-7.909-34.805-19.726c-0.05-0.079-0.099-0.158-0.139-0.238c-3.582-6.042-5.636-13.097-5.636-20.626
		c0-22.404,18.187-40.592,40.58-40.592c15.062,0,28.169,8.275,35.174,20.439L85.896,51.6c-4.326-7.658-12.521-12.769-21.848-12.769
		c-13.87,0-25.171,11.3-25.171,25.173c0,4.702,1.3,9.107,3.562,12.878c0.04,0.079,0.089,0.159,0.139,0.237
		c4.436,7.225,12.402,12.056,21.471,12.056C73.405,89.175,81.62,84.035,85.937,76.436z"/>
	<path fill="#FFFFFF" stroke="#FFFFFF" stroke-width="0.25" stroke-miterlimit="10" d="M116.148,61.741v-4.724h-3.964v-3.903h-4.723
		v3.903h-4.079v-3.903h-4.722v3.903h-4.093v4.724h4.093v4.454h-4.093v4.724h4.093v3.776h4.722v-3.776h4.079v3.776h4.723v-3.776
		h3.964v-4.724h-3.964v-4.454H116.148z M107.462,66.195h-4.079v-4.454h4.079V66.195z"/>
</g>
</svg>
