<svg xmlns="http://www.w3.org/2000/svg" viewBox="0 0 128 128">
<path fill="#1572B6" d="M89.234,5.856H81.85l7.68,8.333v3.967H73.713v-4.646h7.678l-7.678-8.333V1.207h15.521V5.856L89.234,5.856z
	 M70.577,5.856h-7.384l7.679,8.333v3.967H55.055v-4.646h7.679l-7.679-8.333V1.207h15.522V5.856z M52.103,6.046h-7.968v7.271h7.968
	v4.839H38.471V1.207h13.632V6.046z"/>
<path fill="#1572B6" d="M27.613,116.706l-8.097-90.813h88.966l-8.104,90.798l-36.434,10.102L27.613,116.706z"/>
<polygon fill="#FFFFFF" points="91.66,46.67 88.96,76.89 88.97,76.89 87.03,98.53 86.86,100.42 64.07,106.73 64.03,106.74 
	64.02,106.75 41.2,100.42 39.64,82.93 50.82,82.93 51.61,91.81 64.02,95.16 64.03,95.16 64.03,95.15 76.45,91.8 77.75,77.36 
	51.75,77.36 51.53,74.86 51.02,69.21 50.75,66.22 78.74,66.22 79.76,54.81 37.14,54.81 36.91,52.31 36.4,46.67 36.14,43.68 
	91.93,43.68 "/>
</svg>
