<svg xmlns="http://www.w3.org/2000/svg" viewBox="0 0 128 128">
<path fill="#E44D26" d="M27.854,116.354l-8.043-90.21h88.378l-8.051,90.197l-36.193,10.033L27.854,116.354z"/>
<polygon fill="#FFFFFF" points="91.68,44.58 91.41,47.55 90.91,53.16 90.69,55.65 48.35,55.65 49.36,66.98 89.68,66.98 89.41,69.95 
	86.81,99.08 86.64,100.95 64,107.22 63.96,107.23 63.95,107.24 41.29,100.95 39.73,83.57 50.84,83.57 51.63,92.4 63.95,95.72 
	63.96,95.72 64,95.71 76.3,92.39 77.59,78.04 39.24,78.04 36.52,47.55 36.26,44.58 "/>
<path fill="#E44D26" d="M28.034,1.627h5.622v5.556H38.8V1.627h5.623v16.822H38.8v-5.633h-5.143v5.633h-5.623V1.627z M51.816,7.206
	h-4.95V1.627h15.525v5.579h-4.952v11.243h-5.623V7.206L51.816,7.206z M64.855,1.627h5.861l3.607,5.911l3.603-5.911h5.865v16.822
	h-5.601v-8.338l-3.867,5.981h-0.098l-3.871-5.981v8.338h-5.502V1.627H64.855z M86.591,1.627h5.624v11.262h7.907v5.561H86.591V1.627z
	"/>
</svg>
