<svg xmlns="http://www.w3.org/2000/svg" viewBox="0 0 128 128">
<path fill="#F0DB4F" d="M17.501,17.5H110.5v93H17.501V17.5z"/>
<path fill="#323330" d="M102.89,88.319c-0.683-4.243-3.448-7.806-11.644-11.13c-2.847-1.308-6.021-2.245-6.966-4.402
	c-0.336-1.255-0.381-1.962-0.167-2.722c0.608-2.467,3.553-3.236,5.887-2.529c1.503,0.505,2.926,1.662,3.783,3.51
	c4.014-2.6,4.005-2.581,6.808-4.367c-1.026-1.591-1.573-2.325-2.246-3.005c-2.412-2.696-5.702-4.084-10.962-3.979l-2.739,0.354
	c-2.625,0.663-5.128,2.042-6.595,3.889c-4.402,4.996-3.147,13.738,2.21,17.336c5.278,3.961,13.03,4.862,14.021,8.566
	c0.963,4.535-3.332,6.003-7.603,5.481c-3.146-0.655-4.897-2.254-6.79-5.163c-3.482,2.016-3.482,2.016-7.063,4.075
	c0.85,1.856,1.742,2.697,3.165,4.306c6.737,6.833,23.595,6.497,26.618-3.847C102.729,94.339,103.544,91.97,102.89,88.319z
	 M68.058,60.243h-8.698l-0.035,22.489c0,4.783,0.247,9.168-0.531,10.512c-1.272,2.643-4.57,2.315-6.073,1.804
	c-1.53-0.753-2.308-1.821-3.208-3.332c-0.247-0.434-0.433-0.771-0.496-0.797l-7.073,4.331c1.176,2.415,2.909,4.51,5.127,5.87
	c3.315,1.99,7.771,2.6,12.43,1.53c3.033-0.884,5.65-2.714,7.019-5.498c1.98-3.652,1.556-8.071,1.537-12.96
	C68.103,76.217,68.058,68.243,68.058,60.243z"/>
</svg>
