<svg xmlns="http://www.w3.org/2000/svg" xmlns:xlink="http://www.w3.org/1999/xlink" viewBox="0 0 128 128">
    <path fill="#6181B6" d="M64.026 93.694c32.36 0 58.594-13.295 58.594-29.694s-26.233-29.694-58.594-29.694-58.593 13.295-58.593 29.694 26.233 29.694 58.593 29.694z"/>
    <path fill="#fff" d="M38.67 54.89c2.66 0 4.434.491 5.32 1.474.885.982 1.097 2.668.633 5.057-.484 2.488-1.416 4.264-2.798 5.328-1.382 1.063-3.485 1.595-6.308 1.595h-4.26l2.614-13.453h4.799v-.001zm-17.061 27.072h7.002l1.661-8.546h5.998c2.646 0 4.823-.277 6.532-.834 1.709-.556 3.263-1.488 4.661-2.797 1.173-1.078 2.122-2.268 2.85-3.569.727-1.3 1.242-2.734 1.547-4.305.741-3.811.182-6.778-1.676-8.904s-4.812-3.189-8.862-3.189h-13.466l-6.247 32.144zM57.003 41.271h6.947l-1.661 8.546h6.189c3.894 0 6.58.68 8.059 2.037 1.479 1.359 1.921 3.561 1.33 6.603l-2.906 14.959h-7.058l2.763-14.223c.314-1.618.199-2.722-.347-3.311-.546-.587-1.708-.882-3.485-.882h-5.553l-3.578 18.416h-6.947l6.247-32.145zM93.324 54.89c2.66 0 4.434.491 5.319 1.474.887.982 1.097 2.668.634 5.057-.484 2.488-1.417 4.264-2.799 5.328-1.382 1.063-3.484 1.595-6.308 1.595h-4.259l2.614-13.453h4.799v-.001zm-17.06 27.072h7.002l1.661-8.546h5.997c2.646 0 4.823-.277 6.532-.834 1.71-.556 3.264-1.488 4.661-2.797 1.174-1.078 2.123-2.268 2.851-3.569.726-1.3 1.242-2.734 1.547-4.305.74-3.811.182-6.778-1.676-8.904s-4.812-3.189-8.863-3.189h-13.465l-6.247 32.144z"/>
</svg>