<svg xmlns="http://www.w3.org/2000/svg" viewBox="0 0 128 128">
    <path fill="#FFDD4E" d="M105.398,36.001c-1.487-6.003-4.334-10.358-10.366-10.358h-8.457v8.896c0,7.139-5.384,13.68-12.285,13.68
	H53.581c-5.673,0-11.171,4.322-11.171,10.004v19.744c0,5.621,5.287,8.926,10.77,10.537c6.563,1.931,12.542,2.275,20.396,0
	c5.223-1.513,10.058-4.557,10.058-10.537v-7.173H63.02v-2.945h32.007c6.025,0,8.273-4.336,10.371-10.642
	C107.563,50.711,107.471,44.334,105.398,36.001z"/>
<path fill="#366E9C" d="M40.441,67.849v-9.891c0-6.846,6.104-12.683,13.138-12.683H74.29c5.769,0,9.342-4.948,9.342-10.734V14.793
	c0-5.623-4.227-9.843-9.854-10.781c-3.564-0.593-7-0.863-10.545-0.845c-3.543,0.016-7.203,0.318-10.184,0.845
	c-8.775,1.55-10.642,4.794-10.642,10.781v7.903h20.613v2.946H35.428c-6.025,0-11.306,3.465-12.956,10.358
	c-1.903,7.901-1.988,12.958,0,21.206c1.475,6.136,4.995,10.642,11.021,10.642H40.441L40.441,67.849z"/>
<path fill="#646464" d="M35.446,111.09c0-3.688-1.054-5.582-3.154-5.687c-0.837-0.039-1.653,0.095-2.449,0.401
	c-0.635,0.227-1.064,0.455-1.287,0.681v8.806c1.348,0.844,2.54,1.236,3.58,1.176C34.343,116.316,35.446,114.53,35.446,111.09z
	 M38.039,111.241c0,1.875-0.437,3.433-1.322,4.668c-0.985,1.397-2.35,2.119-4.096,2.156c-1.314,0.043-2.67-0.37-4.066-1.233v8.002
	l-2.257-0.805v-17.761c0.37-0.452,0.847-0.843,1.425-1.173c1.342-0.784,2.976-1.185,4.896-1.207l0.032,0.033
	c1.754-0.021,3.109,0.698,4.059,2.162C37.597,107.424,38.039,109.141,38.039,111.241z"/>
<path fill="#646464" d="M51.83,116.493c0,2.513-0.252,4.25-0.756,5.22c-0.506,0.969-1.469,1.739-2.89,2.316
	c-1.151,0.454-2.4,0.699-3.737,0.743l-0.373-1.423c1.362-0.182,2.32-0.369,2.875-0.557c1.095-0.367,1.846-0.937,2.256-1.697
	c0.33-0.617,0.494-1.801,0.494-3.551v-0.586c-1.544,0.698-3.16,1.045-4.851,1.045c-1.11,0-2.091-0.347-2.935-1.045
	c-0.947-0.766-1.422-1.729-1.422-2.904v-9.389l2.256-0.771v9.451c0,1.008,0.327,1.787,0.978,2.332
	c0.651,0.551,1.495,0.809,2.53,0.787c1.036-0.021,2.143-0.422,3.321-1.205v-11.024h2.256v12.258H51.83z"/>
<path fill="#646464" d="M60.64,117.946c-0.27,0.021-0.516,0.028-0.744,0.028c-1.277,0-2.271-0.301-2.982-0.912
	c-0.709-0.609-1.064-1.448-1.064-2.521v-8.891h-1.544v-1.42h1.544v-3.77l2.252-0.804v4.572h2.535v1.42h-2.535v8.825
	c0,0.847,0.226,1.447,0.681,1.797c0.391,0.289,1.012,0.455,1.854,0.494v1.18L60.64,117.946L60.64,117.946z"/>
<path fill="#646464" d="M74.3,117.758h-2.254v-8.709c0-0.885-0.207-1.647-0.618-2.285c-0.475-0.721-1.14-1.084-1.988-1.084
	c-1.035,0-2.328,0.548-3.881,1.641v10.438h-2.254V96.945l2.254-0.712v9.478c1.439-1.049,3.016-1.574,4.729-1.574
	c1.197,0,2.16,0.404,2.902,1.205c0.744,0.802,1.11,1.803,1.11,2.994V117.758L74.3,117.758z"/>
<path fill="#646464" d="M86.291,110.733c0-1.416-0.266-2.584-0.805-3.513c-0.637-1.125-1.625-1.725-2.965-1.785
	c-2.475,0.146-3.711,1.919-3.711,5.313c0,1.559,0.262,2.858,0.777,3.903c0.661,1.331,1.652,1.987,2.979,1.963
	C85.05,116.596,86.291,114.637,86.291,110.733z M88.766,110.75c0,2.02-0.521,3.696-1.545,5.036
	c-1.135,1.502-2.701,2.252-4.699,2.252c-1.979,0-3.52-0.755-4.638-2.252c-1.007-1.34-1.514-3.018-1.514-5.036
	c0-1.897,0.547-3.49,1.639-4.789c1.151-1.379,2.667-2.065,4.54-2.065c1.874,0,3.404,0.687,4.573,2.065
	C88.221,107.258,88.766,108.852,88.766,110.75z"/>
<path fill="#646464" d="M101.699,117.758h-2.256v-9.201c0-1.012-0.305-1.799-0.909-2.366c-0.609-0.563-1.416-0.839-2.427-0.813
	c-1.07,0.02-2.092,0.368-3.06,1.047v11.338h-2.257v-11.615c1.3-0.944,2.493-1.561,3.585-1.852c1.031-0.268,1.937-0.4,2.72-0.4
	c0.534,0,1.041,0.052,1.514,0.156c0.89,0.203,1.609,0.584,2.162,1.142c0.621,0.618,0.931,1.36,0.931,2.228v10.34h-0.003V117.758z"/>
<path fill="#FFFFFF" d="M52.271,17.425c-2.148,0-3.89-1.762-3.89-3.938c0-2.188,1.739-3.965,3.89-3.965
	c2.141,0,3.89,1.779,3.89,3.965C56.161,15.661,54.412,17.425,52.271,17.425z"/>
<path fill="#FFFFFF" d="M75.598,75.335c2.148,0,3.893,1.762,3.893,3.941c0,2.185-1.743,3.961-3.893,3.961
	c-2.146,0-3.893-1.776-3.893-3.961C71.705,77.097,73.457,75.335,75.598,75.335z"/>
</svg>