<svg xmlns="http://www.w3.org/2000/svg" xmlns:xlink="http://www.w3.org/1999/xlink" viewBox="0 0 420 256">
<rect x="-2.021" y="-1.804" fill="#DDDCDC" width="423.81" height="259.742"/>
<g>
	<polygon fill="#E52426" stroke="#232224" stroke-miterlimit="10" points="285.04,105.538 306.016,111.332 285.04,117.126 	"/>
	
		<ellipse fill="#424142" stroke="#232224" stroke-width="0.5" stroke-miterlimit="10" cx="283.905" cy="137.522" rx="12.875" ry="2.306"/>
	<g>
		<path fill="#424142" d="M284.547,135.157c0,1.101-0.289,2-0.642,2s-0.642-0.899-0.642-2v-28.34c0-1.1,0.289-2,0.642-2
			s0.642,0.9,0.642,2V135.157z"/>
		<path fill="none" stroke="#232224" stroke-width="0.5" stroke-miterlimit="10" d="M284.547,135.157c0,1.101-0.289,2-0.642,2
			s-0.642-0.899-0.642-2v-28.34c0-1.1,0.289-2,0.642-2s0.642,0.9,0.642,2V135.157z"/>
	</g>
</g>
<g>
	<circle fill="#7353A2" cx="284.083" cy="157.159" r="8.17"/>
	<path fill="#7353A2" d="M284.676,149.847c0,0.204-0.266,0.368-0.593,0.368l0,0c-0.328,0-0.594-0.164-0.594-0.368v-5.596
		c0-0.204,0.266-0.368,0.594-0.368l0,0c0.327,0,0.593,0.164,0.593,0.368V149.847z"/>
	<path fill="#7353A2" d="M276.668,156.565c0.203,0,0.367,0.267,0.367,0.594l0,0c0,0.327-0.164,0.594-0.367,0.594h-5.596
		c-0.203,0-0.368-0.267-0.368-0.594l0,0c0-0.327,0.165-0.594,0.368-0.594H276.668z"/>
	<path fill="#7353A2" d="M296.738,156.565c0.203,0,0.367,0.267,0.367,0.594l0,0c0,0.327-0.164,0.594-0.367,0.594h-5.597
		c-0.203,0-0.368-0.267-0.368-0.594l0,0c0-0.327,0.165-0.594,0.368-0.594H296.738z"/>
	<path fill="#7353A2" d="M284.538,169.863c0,0.204-0.266,0.368-0.594,0.368l0,0c-0.328,0-0.594-0.164-0.594-0.368v-5.596
		c0-0.203,0.266-0.368,0.594-0.368l0,0c0.328,0,0.594,0.165,0.594,0.368V169.863z"/>
	<path fill="#7353A2" d="M279.434,151.773c0.144,0.144,0.072,0.448-0.16,0.68l0,0c-0.23,0.231-0.535,0.304-0.679,0.16l-3.957-3.958
		c-0.144-0.144-0.072-0.448,0.159-0.68l0,0c0.231-0.231,0.535-0.303,0.68-0.159L279.434,151.773z"/>
	<path fill="#7353A2" d="M293.171,165.459c0.144,0.144,0.073,0.448-0.159,0.68l0,0c-0.231,0.231-0.535,0.303-0.679,0.159
		l-3.957-3.957c-0.145-0.144-0.072-0.448,0.158-0.68l0,0c0.232-0.231,0.536-0.304,0.68-0.16L293.171,165.459z"/>
	<path fill="#7353A2" d="M289.215,152.613c-0.144,0.144-0.448,0.072-0.68-0.16l0,0c-0.231-0.231-0.304-0.535-0.159-0.679
		l3.957-3.957c0.144-0.144,0.448-0.072,0.68,0.159l0,0c0.231,0.231,0.304,0.535,0.16,0.68L289.215,152.613z"/>
	<path fill="#7353A2" d="M275.477,166.298c-0.143,0.144-0.448,0.072-0.68-0.159l0,0c-0.23-0.231-0.303-0.535-0.159-0.68l3.957-3.957
		c0.144-0.144,0.448-0.071,0.681,0.159l0,0c0.23,0.231,0.303,0.536,0.158,0.681L275.477,166.298z"/>
</g>
<g>
	<path fill="#424142" d="M115.021,138.34h-6.23v-16.758c0-1.81,0.078-3.809,0.234-5.996h-0.156
		c-0.326,1.719-0.619,2.956-0.879,3.711l-6.563,19.043h-5.156l-6.68-18.848c-0.183-0.508-0.476-1.81-0.879-3.906h-0.176
		c0.169,2.761,0.254,5.183,0.254,7.266v15.488h-5.684v-28.008h9.238l5.723,16.602c0.456,1.328,0.788,2.663,0.996,4.004h0.117
		c0.352-1.549,0.723-2.897,1.113-4.043l5.723-16.563h9.004V138.34z"/>
	<path fill="#424142" d="M123.907,115.176c-1.042,0-1.895-0.309-2.559-0.928c-0.664-0.618-0.996-1.377-0.996-2.275
		c0-0.924,0.332-1.68,0.996-2.266s1.517-0.879,2.559-0.879c1.055,0,1.911,0.293,2.568,0.879c0.657,0.586,0.986,1.341,0.986,2.266
		c0,0.938-0.329,1.706-0.986,2.305C125.818,114.876,124.962,115.176,123.907,115.176z M126.954,138.34h-6.172v-20h6.172V138.34z"/>
	<path fill="#424142" d="M151.466,138.34h-6.152v-11.113c0-3.099-1.107-4.648-3.32-4.648c-1.068,0-1.947,0.41-2.637,1.23
		c-0.69,0.82-1.035,1.862-1.035,3.125v11.406h-6.172v-20h6.172v3.164h0.078c1.471-2.435,3.613-3.652,6.426-3.652
		c4.427,0,6.641,2.748,6.641,8.242V138.34z"/>
	<path fill="#424142" d="M174.317,130.098h-13.047c0.208,2.904,2.038,4.355,5.488,4.355c2.2,0,4.134-0.521,5.801-1.563v4.453
		c-1.849,0.989-4.251,1.484-7.207,1.484c-3.229,0-5.736-0.896-7.52-2.686c-1.784-1.79-2.676-4.287-2.676-7.49
		c0-3.32,0.963-5.95,2.891-7.891c1.927-1.94,4.297-2.91,7.109-2.91c2.917,0,5.172,0.866,6.768,2.598
		c1.595,1.732,2.393,4.082,2.393,7.051V130.098z M168.595,126.309c0-2.864-1.159-4.297-3.477-4.297c-0.99,0-1.846,0.41-2.568,1.23
		s-1.162,1.843-1.318,3.066H168.595z"/>
	<path fill="#424142" d="M176.681,137.813v-5c1.016,0.612,2.028,1.068,3.037,1.367c1.009,0.3,1.963,0.449,2.861,0.449
		c1.094,0,1.956-0.149,2.588-0.449c0.631-0.299,0.947-0.755,0.947-1.367c0-0.391-0.144-0.716-0.43-0.977
		c-0.287-0.26-0.654-0.488-1.104-0.684s-0.941-0.371-1.475-0.527c-0.534-0.156-1.048-0.332-1.543-0.527
		c-0.794-0.299-1.494-0.621-2.1-0.967c-0.605-0.345-1.113-0.745-1.523-1.201c-0.41-0.456-0.723-0.983-0.938-1.582
		c-0.215-0.599-0.322-1.309-0.322-2.129c0-1.12,0.244-2.083,0.732-2.891c0.488-0.807,1.139-1.468,1.953-1.982
		c0.813-0.514,1.745-0.892,2.793-1.133c1.048-0.241,2.139-0.361,3.271-0.361c0.885,0,1.784,0.068,2.695,0.205
		c0.911,0.137,1.81,0.335,2.695,0.596v4.766c-0.781-0.456-1.618-0.797-2.51-1.025c-0.892-0.228-1.768-0.342-2.627-0.342
		c-0.404,0-0.785,0.036-1.143,0.107c-0.358,0.072-0.674,0.176-0.947,0.313s-0.488,0.313-0.645,0.527s-0.234,0.459-0.234,0.732
		c0,0.365,0.117,0.677,0.352,0.938c0.234,0.261,0.54,0.485,0.918,0.674c0.377,0.189,0.797,0.358,1.26,0.508
		c0.462,0.15,0.921,0.303,1.377,0.459c0.82,0.287,1.563,0.599,2.227,0.938c0.664,0.339,1.233,0.736,1.709,1.191
		c0.475,0.456,0.84,0.99,1.094,1.602c0.254,0.612,0.381,1.342,0.381,2.188c0,1.186-0.257,2.197-0.771,3.037
		c-0.515,0.84-1.198,1.523-2.051,2.051c-0.853,0.527-1.836,0.911-2.949,1.152s-2.269,0.361-3.467,0.361
		C180.593,138.828,178.556,138.489,176.681,137.813z"/>
	<path fill="#424142" d="M224.552,118.34l-5.762,20h-6.484l-2.949-11.719c-0.195-0.781-0.306-1.634-0.332-2.559h-0.117
		c-0.091,1.016-0.222,1.843-0.391,2.48l-3.164,11.797h-6.406l-5.645-20h6.289l2.754,13.047c0.13,0.612,0.228,1.354,0.293,2.227
		h0.117c0.065-0.911,0.183-1.68,0.352-2.305l3.438-12.969h5.879l3.086,13.047c0.078,0.326,0.169,1.081,0.273,2.266h0.137
		c0.065-0.755,0.169-1.51,0.313-2.266l2.598-13.047H224.552z"/>
	<path fill="#424142" d="M245.255,130.098h-13.047c0.208,2.904,2.038,4.355,5.488,4.355c2.2,0,4.134-0.521,5.801-1.563v4.453
		c-1.849,0.989-4.251,1.484-7.207,1.484c-3.229,0-5.735-0.896-7.52-2.686s-2.676-4.287-2.676-7.49c0-3.32,0.964-5.95,2.891-7.891
		c1.927-1.94,4.297-2.91,7.109-2.91c2.917,0,5.173,0.866,6.768,2.598c1.595,1.732,2.393,4.082,2.393,7.051V130.098z
		 M239.532,126.309c0-2.864-1.159-4.297-3.477-4.297c-0.989,0-1.846,0.41-2.568,1.23s-1.162,1.843-1.318,3.066H239.532z"/>
	<path fill="#424142" d="M266.896,130.098h-13.047c0.208,2.904,2.038,4.355,5.488,4.355c2.2,0,4.134-0.521,5.801-1.563v4.453
		c-1.849,0.989-4.251,1.484-7.207,1.484c-3.229,0-5.735-0.896-7.52-2.686s-2.676-4.287-2.676-7.49c0-3.32,0.964-5.95,2.891-7.891
		c1.927-1.94,4.297-2.91,7.109-2.91c2.917,0,5.173,0.866,6.768,2.598c1.595,1.732,2.393,4.082,2.393,7.051V130.098z
		 M261.173,126.309c0-2.864-1.159-4.297-3.477-4.297c-0.989,0-1.846,0.41-2.568,1.23s-1.162,1.843-1.318,3.066H261.173z"/>
	<path fill="#424142" d="M320.175,129.298h-13.047c0.208,2.903,2.038,4.355,5.488,4.355c2.2,0,4.134-0.521,5.801-1.563v4.453
		c-1.849,0.989-4.251,1.484-7.207,1.484c-3.229,0-5.735-0.896-7.52-2.686s-2.676-4.287-2.676-7.49c0-3.32,0.964-5.95,2.891-7.891
		c1.927-1.94,4.297-2.91,7.109-2.91c2.917,0,5.173,0.866,6.768,2.598c1.595,1.732,2.393,4.082,2.393,7.051V129.298z
		 M314.452,125.509c0-2.864-1.159-4.297-3.477-4.297c-0.989,0-1.846,0.41-2.568,1.23s-1.162,1.843-1.318,3.066H314.452z"/>
	<path fill="#424142" d="M336.894,123.106c-0.742-0.403-1.608-0.605-2.598-0.605c-1.341,0-2.39,0.492-3.145,1.475
		c-0.755,0.983-1.133,2.321-1.133,4.014v9.551h-6.172v-20h6.172v3.711h0.078c0.977-2.708,2.734-4.063,5.273-4.063
		c0.651,0,1.159,0.078,1.523,0.234V123.106z"/>
</g>
</svg>
