<svg xmlns="http://www.w3.org/2000/svg" viewBox="0 0 128 128">
<g>
	<polygon points="8.792,32.376 64,0.503 119.207,32.376 119.207,96.125 64,128 8.792,96.125 	"/>
	<path fill="#FFFFFF" d="M98.367,53.436c-0.006-0.043-0.016-0.084-0.023-0.127c-0.014-0.084-0.029-0.167-0.053-0.249
		c-0.012-0.048-0.029-0.095-0.045-0.142c-0.023-0.071-0.047-0.144-0.074-0.213c-0.021-0.048-0.043-0.097-0.068-0.144
		c-0.029-0.067-0.061-0.131-0.1-0.194c-0.025-0.047-0.055-0.093-0.082-0.137c-0.039-0.061-0.08-0.121-0.125-0.179
		c-0.031-0.042-0.066-0.086-0.1-0.127c-0.047-0.055-0.098-0.107-0.146-0.158c-0.039-0.04-0.076-0.079-0.117-0.115
		c-0.055-0.05-0.111-0.097-0.168-0.141c-0.043-0.034-0.086-0.067-0.135-0.099c-0.016-0.012-0.031-0.026-0.047-0.037L65.791,30.551
		c-0.988-0.659-2.275-0.659-3.264,0L31.235,51.373c-0.017,0.011-0.031,0.024-0.049,0.036c-0.046,0.032-0.089,0.066-0.133,0.092
		c-0.057,0.044-0.113,0.092-0.167,0.14c-0.042,0.036-0.079,0.075-0.118,0.115c-0.052,0.05-0.1,0.104-0.146,0.184
		c-0.035,0.042-0.069,0.086-0.102,0.129c-0.042,0.057-0.084,0.117-0.124,0.177c-0.029,0.045-0.057,0.091-0.085,0.092
		c-0.035,0.063-0.068,0.129-0.099,0.195c-0.022,0.047-0.046,0.096-0.065,0.144c-0.029,0.069-0.053,0.142-0.076,0.185
		c-0.015,0.047-0.032,0.094-0.046,0.142c-0.021,0.081-0.036,0.164-0.051,0.247c-0.008,0.043-0.019,0.084-0.023,0.091
		c-0.018,0.127-0.027,0.255-0.027,0.384V74.68c0,0.094,0,0.277,0,0.387c0.005,0,0,0.093,0,0.093c0.016,0.094,0,0.185,0.092,0.247
		c0.014,0.092,0,0.092,0.092,0.142c0.023,0.093,0.093,0.184,0.093,0.184c0.019,0.094,0,0.094,0.092,0.144
		c0.03,0.091,0.092,0.091,0.092,0.195c0.026,0,0.093,0.094,0.093,0.094c0.038,0.091,0.091,0.091,0.091,0.178
		c0.033,0,0.093,0.091,0.093,0.128c0.046,0.091,0.092,0.091,0.184,0.185c0.039,0,0.093,0.093,0.093,0.114
		c0.054,0.094,0.091,0.094,0.184,0.142c0.043,0,0.092,0.091,0.092,0.091c0.018,0,0,0,0.092,0.037l31.219,20.954
		c0.494,0.367,1.106,0.46,1.66,0.493c0.569,0,1.137-0.165,1.633-0.493l31.293-20.861c0.016-0.013,0.029-0.025,0.047-0.037
		c0.049-0.032,0.09-0.066,0.135-0.1c0.057-0.048,0.113-0.093,0.166-0.141c0.041-0.037,0.08-0.076,0.117-0.117
		c0.053-0.05,0.1-0.104,0.148-0.158c0.033-0.041,0.066-0.083,0.1-0.126c0.045-0.059,0.084-0.119,0.123-0.18
		c0.029-0.046,0.059-0.089,0.086-0.135c0.035-0.065,0.068-0.13,0.098-0.195c0.023-0.048,0.047-0.096,0.066-0.144
		c0.029-0.071,0.053-0.143,0.076-0.217c0.016-0.045,0.033-0.093,0.045-0.141c0.021-0.08,0.039-0.165,0.051-0.247
		c0.01-0.042,0.02-0.085,0.025-0.126c0.016-0.128,0.025-0.256,0.025-0.387V53.82c-0.027-0.125-0.006-0.217-0.098-0.384H98.367z
		 M67.102,38.457l23.053,15.367l-10.297,6.889l-12.756-8.534V38.457z M61.216,38.481v13.724l-12.754,8.508l-10.297-6.889
		l23.051-15.367V38.481z M35.81,59.327l7.361,4.924l-7.361,4.924V59.327z M61.216,90.045L38.165,74.717l10.297-6.885l12.754,8.531
		V90.045z M64.16,71.212L53.754,64.25L64.16,57.29l10.407,6.961L64.16,71.212z M67.102,90.045V76.322l12.756-8.531l10.297,6.889
		L67.102,90.045z M92.512,69.175L85.15,64.25l7.361-4.924V69.175z"/>
</g>
</svg>
