<svg xmlns="http://www.w3.org/2000/svg" viewBox="0 0 128 128">
<g>
	<g>
		<path fill="#FFFFFF" d="M64,127.869l-55.095-32v-63.62L64,0.443l55.096,31.809v63.619L64,127.869z"/>
	</g>
	<g>
		<path fill="#181616" d="M82.033,117.4c-2.885,0.558-3.91-1.216-3.91-2.733c0-1.872,0.066-8.008,0.066-15.628
			c0-5.313-1.822-8.777-3.867-10.546c12.684-1.413,26.006-6.229,26.006-28.098c0-6.216-2.209-11.297-5.863-15.289
			c0.592-1.433,2.543-7.225-0.557-15.068c0,0-4.779-1.529-15.645,5.837c-4.553-1.263-9.428-1.896-14.266-1.918
			c-4.842,0.023-9.713,0.657-14.257,1.921c-10.882-7.37-15.663-5.838-15.663-5.838c-3.094,7.844-1.144,13.636-0.551,15.07
			c-3.643,3.988-5.868,9.068-5.868,15.286c0,21.819,13.298,26.703,25.945,28.144c-1.627,1.42-3.103,3.936-3.614,7.614
			c-3.25,1.455-11.494,3.969-16.571-4.735c0,0-3.013-5.469-8.729-5.87c0,0-5.557-0.07-0.39,3.465c0,0,3.732,1.745,6.322,8.333
			c0,0,3.344,10.164,19.187,6.718c0.023,4.76,0.077,9.247,0.077,10.604c0,1.504-1.045,3.268-3.891,2.739L8.905,95.869v-63.62
			L64,0.443l55.096,31.809v63.619L82.033,117.4z"/>
		<path fill="#181616" d="M28.619,88.188c-0.124,0.28-0.57,0.366-0.976,0.173c-0.415-0.183-0.646-0.57-0.512-0.855
			c0.123-0.288,0.569-0.37,0.982-0.175C28.528,87.515,28.763,87.904,28.619,88.188L28.619,88.188z M30.927,90.759
			c-0.272,0.255-0.802,0.137-1.162-0.261c-0.373-0.399-0.443-0.928-0.166-1.185c0.281-0.252,0.796-0.133,1.169,0.263
			C31.139,89.979,31.211,90.506,30.927,90.759L30.927,90.759z M33.173,94.04c-0.35,0.239-0.921,0.018-1.273-0.491
			c-0.349-0.507-0.349-1.116,0.01-1.357c0.351-0.242,0.914-0.023,1.273,0.479c0.346,0.511,0.346,1.123-0.009,1.368V94.04z
			 M36.247,97.208c-0.311,0.345-0.977,0.253-1.464-0.217c-0.498-0.459-0.635-1.114-0.324-1.455c0.317-0.345,0.986-0.247,1.476,0.217
			C36.432,96.214,36.58,96.867,36.247,97.208L36.247,97.208z M40.491,99.051c-0.138,0.446-0.779,0.647-1.424,0.456
			c-0.644-0.196-1.066-0.715-0.934-1.165s0.777-0.658,1.427-0.458C40.203,98.077,40.625,98.593,40.491,99.051z M45.152,99.388
			c0.016,0.472-0.531,0.861-1.206,0.867c-0.682,0.02-1.234-0.362-1.241-0.824c0-0.475,0.536-0.86,1.217-0.87
			C44.598,98.545,45.153,98.923,45.152,99.388L45.152,99.388z M49.487,98.651c0.083,0.458-0.389,0.93-1.061,1.053
			c-0.66,0.124-1.273-0.16-1.358-0.614c-0.081-0.47,0.398-0.94,1.058-1.063c0.673-0.115,1.277,0.161,1.36,0.627V98.651z"/>
	</g>
</g>
</svg>
