<svg xmlns="http://www.w3.org/2000/svg" viewBox="0 0 128 128">
<g>
	<polygon fill="#555456" points="8.829,32.203 63.901,0.407 118.974,32.203 118.974,95.796 63.901,127.593 8.829,95.796 	"/>
	<g>
		<path fill="#E75A4D" d="M92.753,39.029c3.109,0,5.654,2.544,5.654,5.654v1.642l-7.856,5.611L63.803,70.36L37.055,51.746v37.225
			h-2.013c-3.11,0-5.655-2.545-5.655-5.654V44.684c0-3.11,2.545-5.655,5.655-5.655l28.761,21.325L92.751,39.03L92.753,39.029z"/>
		<polygon fill="#E7E4D7" points="37.055,51.746 37.055,88.971 90.553,88.971 90.553,51.937 63.803,70.36 		"/>
		<polygon fill="#B8B7AE" points="37.055,88.971 63.803,70.36 63.683,70.274 37.055,88.562 		"/>
		<polygon fill="#B7B6AD" points="90.553,51.937 90.568,88.971 63.803,70.36 		"/>
		<path fill="#B2392F" d="M98.407,46.325l0.01,36.996c-0.134,4.114-1.917,5.582-7.849,5.649l-0.016-37.036l7.854-5.613V46.325z"/>
		<polygon fill="#F7F5ED" points="35.042,39.029 63.803,60.352 92.753,39.029 		"/>
	</g>
</g>
</svg>
