<svg xmlns="http://www.w3.org/2000/svg" viewBox="0 0 128 128">
<g>
	<polygon fill="#DC5442" points="8.728,32.089 64.001,0.178 119.273,32.089 119.273,95.911 64.001,127.823 8.728,95.911 	"/>
	<path fill="#FFFFFF" d="M68.265,49.259c0,3.637-2.015,6.566-4.858,8.789c-2.779,2.173-3.304,3.078-3.304,4.925
		c0,1.575,3.318,3.917,4.844,5.06c5.311,3.987,6.387,6.494,6.387,11.474c0,6.223-6.7,12.399-17.595,12.399
		c-9.56,0-17.626-3.882-17.626-10.104c0-6.31,6.691-12.89,16.25-12.89c1.042,0,1.997-0.026,2.984-0.026
		c-1.308-1.268-2.364-2.366-2.364-4.285c0-1.145,0.361-2.236,0.873-3.21c-0.518,0.034-1.049,0.07-1.594,0.07
		c-7.852,0-12.424-5.52-12.424-12.436c0-6.771,6.96-12.932,15.307-12.932c4.301,0,16.449,0,16.449,0l-3.674,3.864h-4.321
		C66.646,41.703,68.265,45.292,68.265,49.259z M91.887,48.242h-7.59v7.583h-3.794v-7.583h-7.588v-3.795h7.588v-7.589h3.794v7.589
		h7.59V48.242z"/>
	<path fill="#DC5442" d="M52.666,38.773c-4.433-0.13-7.41,4.325-6.64,10.145c0.763,5.826,4.978,9.892,9.412,10.028
		c4.433,0.129,6.98-3.617,6.218-9.442C60.893,43.685,57.097,38.909,52.666,38.773z"/>
	<path fill="#DC5442" d="M54.529,70.862c-6.609-0.075-12.206,4.169-12.206,9.095c0,5.021,4.772,9.204,11.378,9.204
		c9.29,0,12.528-3.924,12.528-8.951c0-0.606-0.076-1.2-0.212-1.772c-0.729-2.841-3.618-4.4-7.209-6.896
		C57.506,71.119,56.068,70.874,54.529,70.862z"/>
</g>
</svg>
