<svg xmlns="http://www.w3.org/2000/svg" viewBox="0 0 128 128">
<g>
	<polygon fill="#0A6C9B" points="8.768,32.109 63.999,0.223 119.232,32.11 119.232,95.887 63.998,127.776 8.768,95.887 	"/>
	<path fill="#FFFFFF" d="M67.309,59.941v-0.115c-0.021,0.042-0.053,0.081-0.077,0.114L67.309,59.941L67.309,59.941z"/>
	<path fill="#FFFFFF" d="M48.929,90.387h-11.84V54.785h11.84V90.387z M43.006,49.917h-0.078c-3.97,0-6.537-2.738-6.537-6.154
		c0-3.492,2.648-6.153,6.693-6.153c4.051,0,6.545,2.661,6.619,6.153C49.704,47.181,47.136,49.917,43.006,49.917z M91.608,90.387
		H79.772V71.339c0-4.784-1.714-8.055-6.001-8.055c-3.266,0-5.216,2.212-6.072,4.335c-0.313,0.759-0.391,1.812-0.391,2.884v19.884
		H55.476c0,0,0.153-32.265,0-35.602h11.833v5.042c1.577-2.434,4.389-5.877,10.669-5.877c7.786,0,13.63,5.082,13.63,16.018
		L91.608,90.387L91.608,90.387z"/>
</g>
</svg>
