<svg xmlns="http://www.w3.org/2000/svg" viewBox="0 0 128 128">
<g>
	<polygon fill="#2CAAE1" points="8.653,32.045 64,0.089 119.348,32.045 119.348,95.954 64,127.911 8.653,95.954 	"/>
	<path fill="#FFFFFF" d="M85.899,52.855c0.023,0.486,0.034,0.973,0.034,1.466c0,15.018-11.432,32.334-32.335,32.334
		c-6.42,0-12.391-1.879-17.421-5.106c0.893,0.101,1.795,0.156,2.712,0.156c5.327,0,10.223-1.813,14.11-4.861
		c-4.968-0.096-9.168-3.381-10.611-7.893c0.693,0.131,1.403,0.202,2.137,0.202c1.038,0,2.042-0.141,2.992-0.397
		c-5.193-1.046-9.114-5.637-9.114-11.14c0-0.049,0-0.096,0-0.144c1.534,0.853,3.286,1.361,5.148,1.42
		c-3.049-2.034-5.055-5.517-5.055-9.459c0-2.082,0.562-4.038,1.539-5.713c5.602,6.876,13.98,11.4,23.422,11.874
		c-0.192-0.832-0.294-1.696-0.294-2.59c0-6.274,5.088-11.36,11.366-11.36c3.267,0,6.221,1.379,8.294,3.584
		c2.585-0.506,5.02-1.453,7.217-2.758c-0.852,2.657-2.649,4.883-4.996,6.287c2.298-0.27,4.489-0.885,6.525-1.785
		C90.047,49.251,88.12,51.252,85.899,52.855z"/>
</g>
</svg>
